<svg width="187" height="36" viewBox="0 0 187 36" fill="none" xmlns="http://www.w3.org/2000/svg">
<path d="M6.6 32.072C6.6 32.904 6.296 33.608 5.688 34.184C5.08 34.728 4.376 35 3.576 35C2.68 35 1.96 34.728 1.416 34.184C0.872 33.608 0.6 32.904 0.6 32.072V4.328C0.6 3.496 0.888 2.808 1.464 2.264C2.04 1.688 2.776 1.4 3.672 1.4C4.44 1.4 5.112 1.688 5.688 2.264C6.296 2.808 6.6 3.496 6.6 4.328V32.072ZM39.3068 1.4C40.0748 1.4 40.6988 1.656 41.1788 2.168C41.6588 2.68 41.8988 3.32 41.8988 4.088V32.072C41.8988 32.904 41.6108 33.608 41.0348 34.184C40.4908 34.728 39.8028 35 38.9708 35C38.5548 35 38.1228 34.936 37.6748 34.808C37.2588 34.648 36.9388 34.44 36.7148 34.184L17.8508 10.232L19.0988 9.464V32.312C19.0988 33.08 18.8428 33.72 18.3308 34.232C17.8508 34.744 17.2108 35 16.4108 35C15.6428 35 15.0188 34.744 14.5388 34.232C14.0588 33.72 13.8188 33.08 13.8188 32.312V4.328C13.8188 3.496 14.0908 2.808 14.6348 2.264C15.2108 1.688 15.9148 1.4 16.7468 1.4C17.1948 1.4 17.6588 1.496 18.1388 1.688C18.6188 1.848 18.9708 2.104 19.1948 2.456L37.4828 25.784L36.6667 26.36V4.088C36.6667 3.32 36.9068 2.68 37.3868 2.168C37.8668 1.656 38.5068 1.4 39.3068 1.4ZM72.2516 35C71.3556 35 70.6356 34.632 70.0916 33.896L59.0036 19.304L63.3716 14.84L74.8436 30.008C75.2916 30.616 75.5156 31.272 75.5156 31.976C75.5156 32.872 75.1796 33.608 74.5076 34.184C73.8356 34.728 73.0836 35 72.2516 35ZM72.8276 1.16C73.5956 1.16 74.2196 1.48 74.6996 2.12C75.2116 2.728 75.4676 3.352 75.4676 3.992C75.4676 4.664 75.1796 5.288 74.6036 5.864L54.4916 25.112L54.2516 18.248L70.4756 2.264C71.2116 1.528 71.9956 1.16 72.8276 1.16ZM52.0916 35C51.1956 35 50.4756 34.728 49.9316 34.184C49.3876 33.608 49.1156 32.904 49.1156 32.072V4.328C49.1156 3.496 49.4036 2.808 49.9796 2.264C50.5556 1.688 51.2916 1.4 52.1876 1.4C53.0836 1.4 53.7876 1.688 54.2996 2.264C54.8436 2.808 55.1156 3.496 55.1156 4.328V32.072C55.1156 32.904 54.8436 33.608 54.2996 34.184C53.7556 34.728 53.0196 35 52.0916 35Z" fill="#B4ADEA"/>
<path d="M99.0968 29.384C99.9288 29.384 100.617 29.656 101.161 30.2C101.737 30.712 102.025 31.384 102.025 32.216C102.025 33.016 101.737 33.688 101.161 34.232C100.617 34.744 99.9288 35 99.0968 35H83.4968C82.6648 35 81.9608 34.728 81.3848 34.184C80.8408 33.608 80.5688 32.904 80.5688 32.072V4.328C80.5688 3.496 80.8568 2.808 81.4328 2.264C82.0088 1.688 82.7448 1.4 83.6408 1.4C84.4088 1.4 85.0808 1.688 85.6568 2.264C86.2648 2.808 86.5688 3.496 86.5688 4.328V30.2L85.5128 29.384H99.0968Z" fill="url(#paint0_linear)"/>
<path d="M110.45 1.4H126.53C127.362 1.4 128.05 1.672 128.594 2.216C129.17 2.728 129.458 3.4 129.458 4.232C129.458 5.032 129.17 5.688 128.594 6.2C128.05 6.68 127.362 6.92 126.53 6.92H113.09L113.522 6.104V15.464L113.138 15.08H124.37C125.202 15.08 125.89 15.352 126.434 15.896C127.01 16.408 127.298 17.08 127.298 17.912C127.298 18.712 127.01 19.368 126.434 19.88C125.89 20.36 125.202 20.6 124.37 20.6H113.282L113.522 20.216V29.912L113.138 29.48H126.53C127.362 29.48 128.05 29.768 128.594 30.344C129.17 30.888 129.458 31.528 129.458 32.264C129.458 33.064 129.17 33.72 128.594 34.232C128.05 34.744 127.362 35 126.53 35H110.45C109.618 35 108.914 34.728 108.338 34.184C107.794 33.608 107.522 32.904 107.522 32.072V4.328C107.522 3.496 107.794 2.808 108.338 2.264C108.914 1.688 109.618 1.4 110.45 1.4ZM145.791 35.48C143.551 35.48 141.535 35.208 139.743 34.664C137.951 34.088 136.239 33.096 134.607 31.688C134.191 31.336 133.871 30.936 133.647 30.488C133.423 30.04 133.311 29.592 133.311 29.144C133.311 28.408 133.567 27.768 134.079 27.224C134.623 26.648 135.295 26.36 136.095 26.36C136.703 26.36 137.247 26.552 137.727 26.936C138.943 27.928 140.143 28.68 141.327 29.192C142.543 29.704 144.031 29.96 145.791 29.96C146.975 29.96 148.063 29.784 149.055 29.432C150.047 29.048 150.847 28.552 151.455 27.944C152.063 27.304 152.367 26.584 152.367 25.784C152.367 24.824 152.079 24.008 151.503 23.336C150.927 22.664 150.047 22.104 148.863 21.656C147.679 21.176 146.175 20.808 144.351 20.552C142.623 20.296 141.103 19.912 139.791 19.4C138.479 18.856 137.375 18.184 136.479 17.384C135.615 16.552 134.959 15.592 134.511 14.504C134.063 13.384 133.839 12.136 133.839 10.76C133.839 8.68 134.367 6.904 135.423 5.432C136.511 3.96 137.967 2.84 139.791 2.072C141.615 1.304 143.631 0.919998 145.839 0.919998C147.919 0.919998 149.839 1.24 151.599 1.88C153.391 2.488 154.847 3.272 155.967 4.232C156.895 4.968 157.359 5.816 157.359 6.776C157.359 7.48 157.087 8.12 156.543 8.696C155.999 9.272 155.359 9.56 154.623 9.56C154.143 9.56 153.711 9.416 153.327 9.128C152.815 8.68 152.127 8.264 151.263 7.88C150.399 7.464 149.487 7.128 148.527 6.872C147.567 6.584 146.671 6.44 145.839 6.44C144.463 6.44 143.295 6.616 142.335 6.968C141.407 7.32 140.703 7.8 140.223 8.408C139.743 9.016 139.503 9.72 139.503 10.52C139.503 11.48 139.775 12.28 140.319 12.92C140.895 13.528 141.711 14.024 142.767 14.408C143.823 14.76 145.087 15.08 146.559 15.368C148.479 15.72 150.159 16.136 151.599 16.616C153.071 17.096 154.287 17.72 155.247 18.488C156.207 19.224 156.927 20.168 157.407 21.32C157.887 22.44 158.127 23.816 158.127 25.448C158.127 27.528 157.551 29.32 156.399 30.824C155.247 32.328 153.727 33.48 151.839 34.28C149.983 35.08 147.967 35.48 145.791 35.48ZM174.431 35.48C172.191 35.48 170.175 35.208 168.383 34.664C166.591 34.088 164.879 33.096 163.247 31.688C162.831 31.336 162.511 30.936 162.287 30.488C162.063 30.04 161.951 29.592 161.951 29.144C161.951 28.408 162.207 27.768 162.719 27.224C163.263 26.648 163.935 26.36 164.735 26.36C165.343 26.36 165.887 26.552 166.367 26.936C167.583 27.928 168.783 28.68 169.967 29.192C171.183 29.704 172.671 29.96 174.431 29.96C175.615 29.96 176.703 29.784 177.695 29.432C178.687 29.048 179.487 28.552 180.095 27.944C180.703 27.304 181.007 26.584 181.007 25.784C181.007 24.824 180.719 24.008 180.143 23.336C179.567 22.664 178.687 22.104 177.503 21.656C176.319 21.176 174.815 20.808 172.991 20.552C171.263 20.296 169.743 19.912 168.431 19.4C167.119 18.856 166.015 18.184 165.119 17.384C164.255 16.552 163.599 15.592 163.151 14.504C162.703 13.384 162.479 12.136 162.479 10.76C162.479 8.68 163.007 6.904 164.063 5.432C165.151 3.96 166.607 2.84 168.431 2.072C170.255 1.304 172.271 0.919998 174.479 0.919998C176.559 0.919998 178.479 1.24 180.239 1.88C182.031 2.488 183.487 3.272 184.607 4.232C185.535 4.968 185.999 5.816 185.999 6.776C185.999 7.48 185.727 8.12 185.183 8.696C184.639 9.272 183.999 9.56 183.263 9.56C182.783 9.56 182.351 9.416 181.967 9.128C181.455 8.68 180.767 8.264 179.903 7.88C179.039 7.464 178.127 7.128 177.167 6.872C176.207 6.584 175.311 6.44 174.479 6.44C173.103 6.44 171.935 6.616 170.975 6.968C170.047 7.32 169.343 7.8 168.863 8.408C168.383 9.016 168.143 9.72 168.143 10.52C168.143 11.48 168.415 12.28 168.959 12.92C169.535 13.528 170.351 14.024 171.407 14.408C172.463 14.76 173.727 15.08 175.199 15.368C177.119 15.72 178.799 16.136 180.239 16.616C181.711 17.096 182.927 17.72 183.887 18.488C184.847 19.224 185.567 20.168 186.047 21.32C186.527 22.44 186.767 23.816 186.767 25.448C186.767 27.528 186.191 29.32 185.039 30.824C183.887 32.328 182.367 33.48 180.479 34.28C178.623 35.08 176.607 35.48 174.431 35.48Z" fill="#4D5061"/>
<defs>
<linearGradient id="paint0_linear" x1="97.5" y1="-13" x2="97.5" y2="37" gradientUnits="userSpaceOnUse">
<stop offset="0.260417" stop-color="#B4ADEA"/>
<stop offset="0.9375" stop-color="#4D5061"/>
</linearGradient>
</defs>
</svg>
