<?xml version="1.0" encoding="UTF-8" standalone="no"?>
<svg
   xmlns:dc="http://purl.org/dc/elements/1.1/"
   xmlns:cc="http://creativecommons.org/ns#"
   xmlns:rdf="http://www.w3.org/1999/02/22-rdf-syntax-ns#"
   xmlns:svg="http://www.w3.org/2000/svg"
   xmlns="http://www.w3.org/2000/svg"
   viewBox="0 0 1000 666.66669"
   height="666.66669"
   width="1000"
   xml:space="preserve"
   id="svg2"
   version="1.1"><metadata
     id="metadata8"><rdf:RDF><cc:Work
         rdf:about=""><dc:format>image/svg+xml</dc:format><dc:type
           rdf:resource="http://purl.org/dc/dcmitype/StillImage" /></cc:Work></rdf:RDF></metadata><defs
     id="defs6"><clipPath
       id="clipPath56"
       clipPathUnits="userSpaceOnUse"><path
         id="path54"
         d="m 1264.51,4039.72 c 0,0 24.01,58.76 98.19,3.56 0,0 -40.32,-51.04 -98.19,-3.56" /></clipPath><clipPath
       id="clipPath70"
       clipPathUnits="userSpaceOnUse"><path
         id="path68"
         d="m 1207.94,4047.96 c 0,0 -15.67,63.61 -65.3,27.85 0,0 17.86,-60.72 65.3,-27.85" /></clipPath><clipPath
       id="clipPath212"
       clipPathUnits="userSpaceOnUse"><path
         id="path210"
         d="m 5903.94,3727.71 c 0,0 269.53,-215.86 350.85,-498.08 0,0 29.85,346.97 -151.65,556.85 l -117.07,1.41 -82.13,-60.18" /></clipPath><clipPath
       id="clipPath268"
       clipPathUnits="userSpaceOnUse"><path
         id="path266"
         d="m 6098.52,4125.81 c 0,0 -15.48,59.5 -93.8,16.05 0,0 31.7,-61.84 93.8,-16.05" /></clipPath><clipPath
       id="clipPath282"
       clipPathUnits="userSpaceOnUse"><path
         id="path280"
         d="m 6157.53,4126.4 c 0,0 23.22,59.06 66.28,18.35 0,0 -16.72,-58 -66.28,-18.35" /></clipPath><clipPath
       id="clipPath388"
       clipPathUnits="userSpaceOnUse"><path
         id="path386"
         d="m 2999.08,4135.34 c 0,0 -16.64,60.89 -96.5,15.31 0,0 33.3,-63.08 96.5,-15.31" /></clipPath><clipPath
       id="clipPath402"
       clipPathUnits="userSpaceOnUse"><path
         id="path400"
         d="m 3062.73,4134.26 c 0,0 23.11,60.91 67.81,19.65 0,0 -16.44,-59.75 -67.81,-19.65" /></clipPath><clipPath
       id="clipPath418"
       clipPathUnits="userSpaceOnUse"><path
         id="path416"
         d="m 3164.69,4097.52 c -2.24,10.72 -8.9,19.84 -21.32,25.52 -2.11,0.97 -4.18,1.75 -6.2,2.37 0.07,18.81 -0.58,38.42 -1.88,58.69 l 45.15,-49.15 c 0,0 0.23,-23.39 -15.75,-37.43" /></clipPath><clipPath
       id="clipPath546"
       clipPathUnits="userSpaceOnUse"><path
         id="path544"
         d="m 4504.52,4015.02 c 0,0 -16.52,60.48 -95.85,15.21 0,0 33.45,-54.85 95.85,-15.21" /></clipPath><clipPath
       id="clipPath560"
       clipPathUnits="userSpaceOnUse"><path
         id="path558"
         d="m 4564.68,4016.35 c 0,0 22.95,60.5 67.35,19.52 0,0 -24.77,-57.4 -67.35,-19.52" /></clipPath></defs><g
     transform="matrix(1.3333333,0,0,-1.3333333,0,666.66667)"
     id="g10"><g
       transform="scale(0.1)"
       id="g12"><path
         id="path14"
         style="fill:transparent;fill-opacity:1;fill-rule:nonzero;stroke:none"
         d="M 0,0 H 7500 V 5000 H 0 Z" /><path
         id="path16"
         style="fill:#1f0c07;fill-opacity:1;fill-rule:nonzero;stroke:none"
         d="m 1226.1,724.93 c 0,0 37.85,1.422 36.05,-70.598 -1.8,-72.031 0,-178.262 0,-178.262 H 1226.1 V 600.512 L 1118.11,476.07 H 747.195 c 0,0 19.809,68.422 194.461,66.629 L 1226.1,724.93" /><path
         id="path18"
         style="fill:#e9b089;fill-opacity:1;fill-rule:nonzero;stroke:none"
         d="m 1226.1,724.93 v 92.55 l -144.35,55.2 21.6,-147.739 -177.416,-183.832 h 81.626 c 38.21,0 74.92,14.161 103.18,39.871 38.16,34.731 89.5,88.149 115.36,143.95" /><path
         id="path20"
         style="fill:#294286;fill-opacity:1;fill-rule:nonzero;stroke:none"
         d="m 1005.41,2989.2 c 0,0 -130.207,-315.27 -58.73,-1200.32 71.48,-885.06 92.95,-998.829 92.95,-998.829 l 235.38,3.73 -54.66,2195.419 h -214.94" /><path
         id="path22"
         style="fill:#1f0c07;fill-opacity:1;fill-rule:nonzero;stroke:none"
         d="m 1786.72,724.93 c 0,0 -37.84,1.422 -36.04,-70.598 1.8,-72.031 0,-178.262 0,-178.262 h 36.04 v 124.442 l 108,-124.442 h 370.91 c 0,0 -19.81,68.422 -194.46,66.629 L 1786.72,724.93" /><path
         id="path24"
         style="fill:#e9b089;fill-opacity:1;fill-rule:nonzero;stroke:none"
         d="m 1786.72,724.93 -92.73,197.218 144.34,55.192 71.14,-252.399 177.42,-183.832 h -81.63 c -38.2,0 -74.92,14.161 -103.17,39.871 -38.16,34.731 -89.51,88.149 -115.37,143.95" /><path
         id="path26"
         style="fill:#294286;fill-opacity:1;fill-rule:nonzero;stroke:none"
         d="m 1371.58,2989.2 c 0,0 69.04,-184.63 191.09,-616.86 132.6,-469.62 391.42,-1578.559 391.42,-1578.559 l -251.63,-13.199 -694.7,2038.878 66.5,169.74 h 297.32" /><path
         id="path28"
         style="fill:#000000;fill-opacity:1;fill-rule:nonzero;stroke:none"
         d="m 1243.89,2147.03 -130.26,371.78 c -0.42,1.2 -1.72,1.82 -2.92,1.41 -1.19,-0.42 -1.82,-1.73 -1.4,-2.92 l 130.26,-371.79 c 0.42,-1.19 1.72,-1.82 2.91,-1.4 1.2,0.42 1.82,1.72 1.41,2.92" /><path
         id="path30"
         style="fill:#000000;fill-opacity:1;fill-rule:nonzero;stroke:none"
         d="m 1551.51,4166.92 c 0,0 37.62,-81.51 18.26,-195.81 -19.81,-116.96 109.04,-105.65 93.61,-218.98 0,0 -365.29,-108.52 -702.794,111.46 0,0 -23.074,100.36 47.394,124.36 98.7,33.63 123.72,135.78 123.72,135.78 l 419.81,43.19" /><path
         id="path32"
         style="fill:#000000;fill-opacity:1;fill-rule:nonzero;stroke:none"
         d="m 1131.7,4123.73 c -15.15,-111.32 69.75,-214.79 189.62,-231.1 119.87,-16.32 229.33,60.7 244.49,172.02 15.15,111.32 -69.75,214.79 -189.62,231.11 -119.88,16.31 -229.33,-60.71 -244.49,-172.03" /><path
         id="path34"
         style="fill:#e9b089;fill-opacity:1;fill-rule:nonzero;stroke:none"
         d="m 1369.28,3927.45 -4.5,-333.7 -160.92,21.35 49.69,293.04 115.73,19.31" /><path
         id="path36"
         style="fill:#d7896d;fill-opacity:1;fill-rule:nonzero;stroke:none"
         d="m 1224.64,3737.53 125.07,92.67 -99.3,57.2 z" /><path
         id="path38"
         style="fill:#d7896d;fill-opacity:1;fill-rule:nonzero;stroke:none"
         d="m 1196.03,3949.82 c 0.69,20.68 -2.16,41.43 -9.36,61.39 -9.88,27.36 -26.97,54.62 -59.51,44.26 -55.42,-17.63 -15.38,-109.41 37.13,-123.46 15.45,-4.13 31.3,4.8 31.74,17.81" /><path
         id="path40"
         style="fill:#e9b089;fill-opacity:1;fill-rule:nonzero;stroke:none"
         d="m 1404.2,4245.6 c -35.39,15.04 -74.09,22.62 -112.44,19.84 -51.96,-3.76 -121.03,-26.71 -141.7,-117.96 -34.45,-152.07 -26.75,-253.01 39.75,-304.95 46.62,-36.41 98.6,-40.14 171.1,-10.14 26.97,11.16 67.1,59.69 77.88,88.24 l 31.11,79.49 c 0,0 103.41,173.58 -65.7,245.48" /><path
         id="path42"
         style="fill:#000000;fill-opacity:1;fill-rule:nonzero;stroke:none"
         d="m 1219.99,4015.22 -22.9,-32.23 -0.38,-1.73 0.99,-1.46 17.32,-11.16 c 1.05,-0.67 2.44,-0.37 3.11,0.67 0.67,1.05 0.37,2.44 -0.67,3.11 l -15.34,9.89 21.53,30.31 c 0.72,1.01 0.49,2.42 -0.53,3.13 -1.01,0.72 -2.41,0.48 -3.13,-0.53" /><path
         id="path44"
         style="fill:#000000;fill-opacity:1;fill-rule:nonzero;stroke:none"
         d="m 1217.92,4151.57 c 0,0 4.26,-15.97 -19.85,-15.84 -18.31,0.1 -29.91,0.39 -40.45,-1.7 -5.98,-1.19 -12.43,1.32 -15.27,5.9 -2.3,3.71 -1.8,8.02 1.4,10.98 6.49,6 19.83,14.86 42.1,14.98 28.6,0.15 32.07,-14.32 32.07,-14.32" /><path
         id="path46"
         style="fill:#000000;fill-opacity:1;fill-rule:nonzero;stroke:none"
         d="m 1286.04,4147.27 c 0,0 -9.93,-14.13 22.94,-21.38 24.97,-5.5 54.2,-16.61 68.02,-21.85 7.84,-2.98 17.27,-2.53 22.33,1.04 4.08,2.88 4.52,7.21 0.92,11.05 -7.29,7.78 -36.53,28.27 -66.84,35.19 -38.91,8.89 -47.37,-4.05 -47.37,-4.05" /><path
         id="path48"
         style="fill:#ffffff;fill-opacity:1;fill-rule:nonzero;stroke:none"
         d="m 1264.51,4039.72 c 0,0 24.01,58.76 98.19,3.56 0,0 -40.32,-51.04 -98.19,-3.56" /><g
         id="g50"><g
           clip-path="url(#clipPath56)"
           id="g52"><path
             id="path58"
             style="fill:#000000;fill-opacity:1;fill-rule:nonzero;stroke:none"
             d="m 1284.77,4048.11 c -3.61,-13.94 4.42,-28.08 17.94,-31.57 13.52,-3.5 27.4,4.96 31.01,18.89 3.6,13.95 -4.43,28.08 -17.94,31.58 -13.52,3.5 -27.41,-4.96 -31.01,-18.9" /></g></g><path
         id="path60"
         style="fill:#000000;fill-opacity:1;fill-rule:nonzero;stroke:none"
         d="m 1361.46,4042.01 c -6.7,6.18 -14.5,11.13 -22.9,14.74 -8.33,3.52 -17.39,6.3 -26.16,7.02 -8.96,0.56 -18.06,-0.62 -25.81,-4.43 -7.6,-3.75 -13.98,-10.77 -16.44,-18.23 l -0.12,-0.37 c -0.64,-1.93 -2.72,-2.98 -4.64,-2.34 -1.93,0.64 -2.97,2.71 -2.34,4.64 l 0.05,0.14 c 3.82,10.25 11.58,17.53 20.76,21.86 9.26,4.12 19.38,4.94 28.98,4 9.83,-1.16 18.82,-4.28 27.55,-8.27 8.66,-4.04 16.7,-9.49 23.55,-16.21 l 0.02,-2.52 -2.5,-0.03" /><path
         id="path62"
         style="fill:#ffffff;fill-opacity:1;fill-rule:nonzero;stroke:none"
         d="m 1207.94,4047.96 c 0,0 -15.67,63.61 -65.3,27.85 0,0 17.86,-60.72 65.3,-27.85" /><g
         id="g64"><g
           clip-path="url(#clipPath70)"
           id="g66"><path
             id="path72"
             style="fill:#000000;fill-opacity:1;fill-rule:nonzero;stroke:none"
             d="m 1193.02,4063.26 c 0.39,-13.13 -7.73,-24.02 -18.13,-24.33 -10.39,-0.3 -19.13,10.09 -19.52,23.23 -0.38,13.13 7.73,24.02 18.13,24.32 10.4,0.31 19.14,-10.09 19.52,-23.22" /></g></g><path
         id="path74"
         style="fill:#000000;fill-opacity:1;fill-rule:nonzero;stroke:none"
         d="m 1141.51,4076.81 c 4.1,4.74 9.41,8.72 15.59,10.69 3.07,1.03 6.33,1.45 9.58,1.43 3.28,-0.06 6.39,-0.5 9.72,-1.71 l -0.29,0.1 c 4.07,-1.27 8.16,-2.73 11.74,-5.15 3.62,-2.28 6.96,-5.06 9.76,-8.29 2.85,-3.2 5.3,-6.72 7.34,-10.45 2.02,-3.79 3.68,-7.56 4.9,-11.94 0.46,-1.64 -0.5,-3.35 -2.16,-3.81 -1.65,-0.47 -3.35,0.5 -3.81,2.15 l -0.02,0.07 -0.06,0.22 c -1.78,7.14 -5.36,14.45 -10.21,20.29 -2.39,2.99 -5.27,5.54 -8.4,7.7 -3.09,2.26 -6.67,3.67 -10.28,4.96 l -0.28,0.1 c -4.93,1.96 -11.08,2.31 -16.47,0.77 -5.48,-1.52 -10.41,-4.86 -14.4,-9.13 l -2.12,-0.09 -0.13,2.09" /><path
         id="path76"
         style="fill:#ffffff;fill-opacity:1;fill-rule:nonzero;stroke:none"
         d="m 1184.14,3948.5 96.64,-7.22 c 0,0 -11.64,-34.75 -49.6,-30.18 -37.96,4.56 -47.04,37.4 -47.04,37.4" /><path
         id="path78"
         style="fill:#eec1a3;fill-opacity:1;fill-rule:nonzero;stroke:none"
         d="m 1299.41,3964.72 c -36.55,1.22 -51.8,47.88 -51.8,47.88 l 23.07,22.37 c 6.88,-4.93 13.48,-8.49 19.77,-10.94 v 0 c 8.28,-3.22 16.03,-4.53 23.14,-4.53 3.37,0 6.59,0.29 9.67,0.82 v 0 c 20.71,3.51 34.51,17.39 38.35,21.69 l 2.35,0.03 -0.02,2.52 c -6.85,6.72 -14.89,12.17 -23.55,16.21 -8.73,3.99 -17.72,7.11 -27.55,8.27 -2.19,0.21 -4.41,0.34 -6.65,0.35 l 32.76,31.76 c 39.04,-3.74 52.08,-50.47 52.08,-50.47 l -91.62,-85.96" /><path
         id="path80"
         style="fill:#ffffff;fill-opacity:1;fill-rule:nonzero;stroke:none"
         d="m 1323.26,4020.32 c 4.97,3.46 8.8,8.71 10.46,15.11 2.49,9.65 -0.58,19.39 -7.19,25.63 4.1,-1.18 8.15,-2.67 12.03,-4.31 8.4,-3.61 16.2,-8.56 22.9,-14.74 h 0.15 c -3.84,-4.3 -17.64,-18.18 -38.35,-21.69 m -32.81,3.71 c -6.29,2.45 -12.89,6.01 -19.77,10.94 l 14.27,13.83 c -0.06,-0.23 -0.12,-0.46 -0.18,-0.69 -2.3,-8.88 0.12,-17.84 5.68,-24.08" /><path
         id="path82"
         style="fill:#383838;fill-opacity:1;fill-rule:nonzero;stroke:none"
         d="m 1313.59,4019.5 c -7.11,0 -14.86,1.31 -23.14,4.53 v 0 c -5.56,6.24 -7.98,15.2 -5.68,24.08 0.06,0.23 0.12,0.46 0.18,0.69 l 14.99,14.53 c 2.74,0.39 5.52,0.57 8.32,0.57 1.38,0 2.76,-0.04 4.14,-0.13 4.68,-0.38 9.44,-1.35 14.13,-2.71 6.61,-6.24 9.68,-15.98 7.19,-25.63 -1.66,-6.4 -5.49,-11.65 -10.46,-15.11 v 0 c -3.08,-0.53 -6.3,-0.82 -9.67,-0.82" /><path
         id="path84"
         style="fill:#383838;fill-opacity:1;fill-rule:nonzero;stroke:none"
         d="m 1361.46,4042.01 c -6.7,6.18 -14.5,11.13 -22.9,14.74 -3.88,1.64 -7.93,3.13 -12.03,4.31 -4.69,1.36 -9.45,2.33 -14.13,2.71 -1.38,0.09 -2.76,0.13 -4.14,0.13 -2.8,0 -5.58,-0.18 -8.32,-0.57 l 6.25,6.06 c 2.24,-0.01 4.46,-0.14 6.65,-0.35 9.83,-1.16 18.82,-4.28 27.55,-8.27 8.66,-4.04 16.7,-9.49 23.55,-16.21 l 0.02,-2.52 -2.35,-0.03 h -0.15" /><path
         id="path86"
         style="fill:#383838;fill-opacity:1;fill-rule:nonzero;stroke:none"
         d="m 1100.5,4019.32 c -5.47,10.3 -7.88,19.62 -7.88,19.62 l 38.01,43.04 c 0.67,-7.93 1.84,-15.77 3.47,-23.47 -0.06,-0.46 -0.11,-0.92 -0.17,-1.37 -2.18,-0.37 -4.43,-0.92 -6.77,-1.67 -18.26,-5.81 -26.16,-19.67 -26.66,-36.15" /><path
         id="path88"
         style="fill:#383838;fill-opacity:1;fill-rule:nonzero;stroke:none"
         d="m 1134.1,4058.51 c -1.63,7.7 -2.8,15.54 -3.47,23.47 l 8.27,9.36 c -1.9,-11.29 -3.5,-22.22 -4.8,-32.83" /><path
         id="path90"
         style="fill:#e0a38d;fill-opacity:1;fill-rule:nonzero;stroke:none"
         d="m 1129.97,3992.98 c -13.98,2.84 -23.53,15.17 -29.47,26.34 0.5,16.48 8.4,30.34 26.66,36.15 2.34,0.75 4.59,1.3 6.77,1.67 -2.76,-22.96 -4.11,-44.34 -3.96,-64.16" /><path
         id="path92"
         style="fill:#eec1a3;fill-opacity:1;fill-rule:nonzero;stroke:none"
         d="m 1135.65,3992.38 c -1.96,0.02 -3.86,0.23 -5.68,0.6 -0.15,19.82 1.2,41.2 3.96,64.16 0.06,0.45 0.11,0.91 0.17,1.37 1.3,10.61 2.9,21.54 4.8,32.83 l 33.46,37.89 c 33.16,-2.85 43.23,-49.13 43.23,-49.13 l -12.43,-13.63 c -1.63,2.61 -3.49,5.09 -5.55,7.41 -2.8,3.23 -6.14,6.01 -9.76,8.29 -3.56,2.4 -7.63,3.87 -11.66,5.12 -3.25,1.16 -6.3,1.59 -9.51,1.64 -0.07,0 -0.14,0 -0.21,0 -3.18,0 -6.36,-0.43 -9.37,-1.43 -6.18,-1.97 -11.49,-5.95 -15.59,-10.69 l 0.13,-2.09 1.33,0.06 c 1.33,-3.99 6.76,-18.59 17.48,-28.09 v 0 c 4.06,-3.6 8.88,-6.48 14.53,-7.76 v 0 c 0.86,-0.2 1.75,-0.36 2.66,-0.47 l -41.99,-46.08" /><path
         id="path94"
         style="fill:#ffffff;fill-opacity:1;fill-rule:nonzero;stroke:none"
         d="m 1177.64,4038.46 c -0.91,0.11 -1.8,0.27 -2.66,0.47 1.24,0.05 2.45,0.24 3.61,0.57 l -0.95,-1.04 m -17.19,8.23 c -10.72,9.5 -16.15,24.1 -17.48,28.09 l 0.79,0.03 c 3.99,4.27 8.92,7.61 14.4,9.13 2.27,0.65 4.67,0.96 7.06,0.96 0.61,0 1.22,-0.02 1.82,-0.06 -7.09,-3.55 -11.97,-12.44 -11.67,-22.68 0.18,-5.98 2.08,-11.38 5.08,-15.47 m 31.39,7.35 c 0.85,2.85 1.28,5.97 1.18,9.22 -0.1,3.64 -0.85,7.07 -2.1,10.12 0.94,-0.94 1.84,-1.93 2.67,-2.97 2.12,-2.55 3.99,-5.37 5.57,-8.33 l -7.32,-8.04" /><path
         id="path96"
         style="fill:#383838;fill-opacity:1;fill-rule:nonzero;stroke:none"
         d="m 1174.98,4038.93 c -5.65,1.28 -10.47,4.16 -14.53,7.76 v 0 c -3,4.09 -4.9,9.49 -5.08,15.47 -0.3,10.24 4.58,19.13 11.67,22.68 2.67,-0.18 5.26,-0.75 7.59,-1.67 l 0.28,-0.1 c 3.61,-1.29 7.19,-2.7 10.28,-4.96 2.04,-1.41 3.97,-2.98 5.73,-4.73 1.25,-3.05 2,-6.48 2.1,-10.12 0.1,-3.25 -0.33,-6.37 -1.18,-9.22 l -13.25,-14.54 c -1.16,-0.33 -2.37,-0.52 -3.61,-0.57 v 0" /><path
         id="path98"
         style="fill:#383838;fill-opacity:1;fill-rule:nonzero;stroke:none"
         d="m 1199.16,4062.08 c -1.58,2.96 -3.45,5.78 -5.57,8.33 -0.83,1.04 -1.73,2.03 -2.67,2.97 -1.76,1.75 -3.69,3.32 -5.73,4.73 -3.09,2.26 -6.67,3.67 -10.28,4.96 l -0.28,0.1 c -2.33,0.92 -4.92,1.49 -7.59,1.67 -0.6,0.04 -1.21,0.06 -1.82,0.06 -2.39,0 -4.79,-0.31 -7.06,-0.96 -5.48,-1.52 -10.41,-4.86 -14.4,-9.13 l -0.79,-0.03 -1.33,-0.06 -0.13,2.09 c 4.1,4.74 9.41,8.72 15.59,10.69 3.01,1 6.19,1.43 9.37,1.43 0.07,0 0.14,0 0.21,0 3.21,-0.05 6.26,-0.48 9.51,-1.64 4.03,-1.25 8.1,-2.72 11.66,-5.12 3.62,-2.28 6.96,-5.06 9.76,-8.29 2.06,-2.32 3.92,-4.8 5.55,-7.41 l -4,-4.39" /><path
         id="path100"
         style="fill:#c0653e;fill-opacity:1;fill-rule:nonzero;stroke:none"
         d="m 1246.87,4044.43 -3.54,0.59 c -0.72,-4.32 -1.07,-8.63 -1.07,-12.87 0,-37.12 26.77,-69.86 64.58,-76.21 4.32,-0.73 8.63,-1.08 12.87,-1.08 37.12,0 69.86,26.77 76.21,64.59 0.73,4.32 1.08,8.62 1.08,12.87 0,37.12 -26.78,69.86 -64.59,76.21 -4.32,0.72 -8.62,1.08 -12.87,1.08 -37.12,0 -69.86,-26.78 -76.21,-64.59 l 3.54,-0.59 3.54,-0.59 c 5.74,34.3 35.48,58.59 69.13,58.59 3.85,0 7.76,-0.32 11.69,-0.98 34.3,-5.74 58.59,-35.49 58.59,-69.13 0,-3.85 -0.32,-7.76 -0.98,-11.69 -5.74,-34.3 -35.48,-58.59 -69.13,-58.59 -3.85,0 -7.75,0.32 -11.69,0.98 -34.3,5.74 -58.59,35.48 -58.59,69.13 0,3.85 0.32,7.76 0.98,11.69 l -3.54,0.59" /><path
         id="path102"
         style="fill:#c0653e;fill-opacity:1;fill-rule:nonzero;stroke:none"
         d="m 1092.52,4070.67 -3.54,0.58 c -0.82,-4.97 -1.21,-9.91 -1.21,-14.76 0,-17.95 5.41,-34.67 14.85,-47.67 9.42,-12.99 22.96,-22.27 38.98,-24.99 3.22,-0.55 6.44,-0.82 9.63,-0.82 32.84,0.08 61.92,27.98 68.19,66.03 0.83,4.98 1.22,9.92 1.22,14.76 0,17.95 -5.42,34.68 -14.85,47.67 -9.43,12.99 -22.96,22.26 -38.98,24.99 -3.23,0.55 -6.44,0.82 -9.64,0.82 -32.83,-0.08 -61.91,-27.98 -68.19,-66.03 l 3.54,-0.58 3.55,-0.58 c 5.8,35.2 32.58,60.09 61.1,60.01 2.79,0 5.61,-0.23 8.43,-0.71 14,-2.39 25.88,-10.46 34.38,-22.14 8.48,-11.67 13.49,-26.95 13.48,-43.45 0,-4.45 -0.36,-9 -1.12,-13.59 -5.8,-35.21 -32.58,-60.1 -61.11,-60.02 -2.79,0 -5.6,0.23 -8.42,0.71 -14,2.39 -25.89,10.46 -34.38,22.14 -8.49,11.67 -13.49,26.95 -13.49,43.45 0,4.46 0.37,9.01 1.13,13.6 l -3.55,0.58" /><path
         id="path104"
         style="fill:#c0653e;fill-opacity:1;fill-rule:nonzero;stroke:none"
         d="m 1249.1,4047.24 c -0.32,0.21 -9.58,7.66 -23.01,7.72 -3.57,0 -7.43,-0.55 -11.4,-1.95 l 2.38,-6.77 c 3.16,1.11 6.18,1.55 9.02,1.55 5.31,0 10.01,-1.56 13.37,-3.14 1.68,-0.79 3.01,-1.57 3.91,-2.15 l 1,-0.68 0.23,-0.17 0.04,-0.03 4.46,5.62" /><path
         id="path106"
         style="fill:#c0653e;fill-opacity:1;fill-rule:nonzero;stroke:none"
         d="m 1441.72,3977.9 -48.12,38.79 -4.5,-5.59 48.12,-38.79" /><path
         id="path108"
         style="fill:#000000;fill-opacity:1;fill-rule:nonzero;stroke:none"
         d="m 1437.31,3967.55 c 0.19,14.08 -40.01,127.29 19.2,263.44 0,0 54.07,6.45 60.74,-92.35 10.7,-158.47 -79.94,-171.09 -79.94,-171.09" /><path
         id="path110"
         style="fill:#e9b089;fill-opacity:1;fill-rule:nonzero;stroke:none"
         d="m 1408.53,3921.27 c 7.38,20.47 18.28,39.64 33.1,56.32 20.33,22.89 47.66,42.86 75.41,20.04 47.27,-38.87 -27.66,-112.91 -84.46,-106.15 -16.71,1.99 -28.7,16.9 -24.05,29.79" /><path
         id="path112"
         style="fill:#000000;fill-opacity:1;fill-rule:nonzero;stroke:none"
         d="m 1498.35,3960.05 c -7.38,3.7 -14.47,5.23 -21.07,5.23 -14.55,-0.01 -26.46,-7.36 -34.69,-14.55 -8.25,-7.21 -12.91,-14.36 -12.99,-14.47 -0.68,-1.04 -0.39,-2.43 0.65,-3.11 1.04,-0.68 2.44,-0.39 3.12,0.65 l 0.78,1.12 c 3.7,5.22 20.49,25.99 43.13,25.86 5.9,0 12.26,-1.35 19.06,-4.75 1.11,-0.56 2.47,-0.1 3.02,1.01 0.56,1.11 0.11,2.46 -1.01,3.01" /><path
         id="path114"
         style="fill:#000000;fill-opacity:1;fill-rule:nonzero;stroke:none"
         d="m 1472.53,4219.47 c 0,0 -74.21,-72.1 -341.16,-29.09 0,0 53.35,101.36 191.53,106.58 138.18,5.22 149.63,-77.49 149.63,-77.49" /><path
         id="path116"
         style="fill:#be5640;fill-opacity:1;fill-rule:nonzero;stroke:none"
         d="m 1315.49,3637.79 c 0,0 -68.53,-232.53 -556.998,-590.73 l -127.137,165.9 426.885,463.19 257.25,-38.36" /><path
         id="path118"
         style="fill:#e9b089;fill-opacity:1;fill-rule:nonzero;stroke:none"
         d="m 372.992,3555.1 90.059,46.39 133.441,-193.64 c -31.609,-21.02 -73.316,-44.17 -105.148,-65.07 L 372.992,3555.1" /><path
         id="path120"
         style="fill:#e9b089;fill-opacity:1;fill-rule:nonzero;stroke:none"
         d="m 477.855,3612.22 5.856,20.94 c 7.867,28.14 9.008,57.73 3.336,86.4 l -9.984,50.46 c -2.375,11.99 -14.958,18.97 -26.387,14.64 -9.656,-3.66 -16.113,-12.82 -16.324,-23.14 l -1.114,-54.59 -81.402,147.09 c -4.223,8.19 -14.684,10.82 -22.281,5.6 l -5.09,-3.51 c -6.004,-4.13 -8.266,-11.91 -5.402,-18.61 l 56.816,-113.21 -83.25,121.01 c -4.734,7.88 -15.289,9.84 -22.535,4.19 l -3.586,-2.8 c -6.094,-4.76 -7.68,-13.31 -3.703,-19.93 l 67.566,-111.12 -69.82,73.09 c -6.531,7.27 -18.117,6.63 -23.817,-1.31 l -1.148,-1.6 c -3.906,-5.44 -3.816,-12.8 0.219,-18.15 l 67.125,-81.09 -44.121,33.74 c -7.903,8.05 -21.5,5.09 -25.325,-5.53 -1.812,-5.05 -0.855,-10.68 2.532,-14.84 l 162.812,-184.23 44.485,40.48 c 16.546,15.05 28.519,34.47 34.542,56.02" /><path
         id="path122"
         style="fill:#000000;fill-opacity:1;fill-rule:nonzero;stroke:none"
         d="m 431.43,3709.12 c -0.305,-0.25 -31.407,-26.07 -31.43,-76.68 0,-1.83 0.043,-3.69 0.125,-5.59 0.07,-1.56 1.395,-2.78 2.961,-2.71 1.562,0.07 2.777,1.4 2.707,2.96 -0.082,1.82 -0.121,3.6 -0.121,5.34 0.004,24.09 7.402,42.17 14.785,54.28 3.691,6.05 7.379,10.59 10.125,13.6 1.375,1.51 2.512,2.64 3.293,3.37 l 0.895,0.82 0.273,0.24 c 1.207,1 1.379,2.78 0.379,3.99 -0.996,1.21 -2.785,1.38 -3.992,0.38" /><path
         id="path124"
         style="fill:#be5640;fill-opacity:1;fill-rule:nonzero;stroke:none"
         d="m 806.211,3179.71 -293.922,385.05 -117.051,-97.85 201.879,-369.09 c 34.238,-59.39 85.321,-89.49 141.86,-62.79 50.894,24.03 90.836,93.57 67.234,144.68" /><path
         id="path126"
         style="fill:#000000;fill-opacity:1;fill-rule:nonzero;stroke:none"
         d="m 711.387,3300.17 63.25,-73.15 c 0.828,-0.95 2.269,-1.06 3.226,-0.23 0.957,0.83 1.059,2.27 0.235,3.23 l -63.254,73.15 c -0.824,0.95 -2.27,1.06 -3.227,0.23 -0.953,-0.83 -1.058,-2.27 -0.23,-3.23" /><path
         id="path128"
         style="fill:#ffffff;fill-opacity:1;fill-rule:nonzero;stroke:none"
         d="m 1062.7,3611.53 200.19,-140.32 -12.33,-691.77 -275.665,46.54 c 0,0 -130.481,587.66 87.805,785.55" /><path
         id="path130"
         style="fill:#000000;fill-opacity:1;fill-rule:nonzero;stroke:none"
         d="m 953.305,2828.18 272.435,-52.89 -6.22,68.67 -266.215,45.4 v -61.18" /><path
         id="path132"
         style="fill:#e9b089;fill-opacity:1;fill-rule:nonzero;stroke:none"
         d="m 1363.85,3487.11 c 0,0 -330.32,-110.6 -314.39,91.68 l 155.62,119.51 104.33,-58.98 54.44,-45.42 54.55,-91.14 -54.55,-15.65" /><path
         id="path134"
         style="fill:#be5640;fill-opacity:1;fill-rule:nonzero;stroke:none"
         d="m 1217.68,3691.18 c 0,0 -145.02,-112.62 -223.676,-310.74 -43.399,-109.32 -16.84,-328.32 -9.617,-474.51 7.215,-146.2 16.843,-425.5 16.843,-425.5 l -107.667,60.15 c 0,0 -2.379,641.11 13.238,725.31 15.617,84.21 90.152,409.07 197.879,444.16 0,0 36.69,10.88 100.4,-11.75 l 12.6,-7.12" /><path
         id="path136"
         style="fill:#000000;fill-opacity:1;fill-rule:nonzero;stroke:none"
         d="m 901.633,3156.15 c 0,0.01 -0.195,3.46 -0.395,9.74 -0.199,6.29 -0.394,15.38 -0.394,26.6 -0.055,63.27 6.461,194.26 54.386,268.94 0.684,1.07 0.372,2.48 -0.691,3.16 -1.062,0.68 -2.476,0.37 -3.16,-0.69 -48.902,-76.52 -55.059,-207.78 -55.109,-271.41 0,-22.54 0.796,-36.57 0.796,-36.6 0.075,-1.27 1.153,-2.23 2.414,-2.16 1.262,0.07 2.227,1.15 2.153,2.42" /><path
         id="path138"
         style="fill:#be5640;fill-opacity:1;fill-rule:nonzero;stroke:none"
         d="m 1428.16,3595.91 c 0,0 -48.79,42.18 -119.06,-12.07 -70.27,-54.25 -158.68,-247.12 -158.68,-470.14 0,-223.02 66.26,-647.97 66.26,-647.97 0,0 241.9,-93.08 410.67,27.46 l -254.65,429.5 123.49,343.2 -68.03,330.02" /><path
         id="path140"
         style="fill:#be5640;fill-opacity:1;fill-rule:nonzero;stroke:none"
         d="m 1409.09,3606.36 c 0,0 178.72,-42.92 501.84,-555.28 l -174.4,-115.2 -337.51,381.86 10.07,288.62" /><path
         id="path142"
         style="fill:#000000;fill-opacity:1;fill-rule:nonzero;stroke:none"
         d="m 1479.59,3230.04 -78.86,89.21 c -0.83,0.95 -2.28,1.04 -3.23,0.2 -0.94,-0.83 -1.03,-2.28 -0.2,-3.23 l 78.86,-89.21 c 0.84,-0.95 2.28,-1.04 3.23,-0.2 0.95,0.83 1.04,2.28 0.2,3.23" /><path
         id="path144"
         style="fill:#e9b089;fill-opacity:1;fill-rule:nonzero;stroke:none"
         d="m 1191.03,2969.7 116.25,26.31 -3.76,25.87 c -1.37,9.41 3.55,18.73 12.01,22.74 8.74,4.14 18.99,1.57 24.71,-6.21 l 78.29,-108.64 59.35,-83.69 c -68.14,-34.05 -131.93,-28.5 -150.1,-13.46 -2.64,-0.18 -90.47,-6.84 -90.47,-6.84 -8.77,-1.41 -16.95,4.46 -18.67,13.39 -1.24,6.47 0.25,15.91 18.84,20.11 l -18.59,-4.2 c -9.28,-1.48 -17.88,4.87 -19.47,14.35 -1.63,8.45 5.48,17.11 16.79,21 l -13.84,-1.72 c -10.11,-1.62 -19.5,5.84 -20.21,16.69 -0.61,9.38 6.32,17.68 15.27,19.69 l 20.53,4.6 -22.81,0.38 c -10.8,-0.96 -20.31,7.44 -20.66,19.01 -0.3,9.91 7.11,18.49 16.54,20.62" /><path
         id="path146"
         style="fill:#e9b089;fill-opacity:1;fill-rule:nonzero;stroke:none"
         d="m 1418.53,2929.77 192.99,51.55 31.68,-115.99 -198.56,-33 -26.11,97.44" /><path
         id="path148"
         style="fill:#be5640;fill-opacity:1;fill-rule:nonzero;stroke:none"
         d="m 1789.64,3089.46 -338.25,-115.7 71.56,-152.94 326.04,72.84 c 60.94,14.02 95.25,78.84 72.57,137.11 -20.41,52.46 -79.29,78.65 -131.92,58.69" /><path
         id="path150"
         style="fill:#000000;fill-opacity:1;fill-rule:nonzero;stroke:none"
         d="m 1643.94,3037.21 112.96,38.63 c 1.19,0.41 1.83,1.71 1.42,2.91 -0.41,1.19 -1.71,1.83 -2.9,1.42 l -112.96,-38.64 c -1.2,-0.4 -1.83,-1.7 -1.43,-2.9 0.41,-1.2 1.71,-1.83 2.91,-1.42" /><path
         id="path152"
         style="fill:#ffffff;fill-opacity:1;fill-rule:nonzero;stroke:none"
         d="m 6051.97,632.48 10.91,554.08 203.61,-37.85 -41.85,-489.901 -172.67,-26.329" /><path
         id="path154"
         style="fill:#101010;fill-opacity:1;fill-rule:nonzero;stroke:none"
         d="m 6048.03,720.809 c 0,0 131.64,-71.457 188.29,32.242 l 368.75,-220.422 -615.79,3.961 58.75,184.219" /><path
         id="path156"
         style="fill:#ffffff;fill-opacity:1;fill-rule:nonzero;stroke:none"
         d="m 6604.67,476.07 -615.78,3.961 0.39,56.559 615.79,-3.961 -0.4,-56.559" /><path
         id="path158"
         style="fill:#ffffff;fill-opacity:1;fill-rule:nonzero;stroke:none"
         d="m 6270.01,645.211 c 1.73,0.711 3.29,1.848 4.49,3.41 25.13,32.938 50.37,49.188 50.63,49.359 4.97,3.161 6.32,9.571 2.99,14.309 -3.33,4.762 -10.13,5.91 -15.02,2.891 -1.17,-0.739 -28.58,-18.282 -56.18,-54.418 -3.51,-4.633 -2.44,-11.082 2.41,-14.43 3.21,-2.211 7.28,-2.512 10.68,-1.121" /><path
         id="path160"
         style="fill:#ffffff;fill-opacity:1;fill-rule:nonzero;stroke:none"
         d="m 6322.86,618.77 c 1.73,0.699 3.29,1.851 4.49,3.41 25.13,32.941 50.37,49.199 50.63,49.359 4.97,3.16 6.32,9.57 2.99,14.32 -3.31,4.743 -10.16,5.961 -15.01,2.871 -1.17,-0.718 -28.59,-18.269 -56.18,-54.41 -3.52,-4.621 -2.45,-11.078 2.41,-14.429 3.2,-2.211 7.27,-2.52 10.67,-1.121" /><path
         id="path162"
         style="fill:#ffffff;fill-opacity:1;fill-rule:nonzero;stroke:none"
         d="m 6375.71,592.332 c 1.73,0.719 3.29,1.859 4.49,3.418 25.13,32.922 50.38,49.18 50.63,49.352 4.97,3.16 6.32,9.57 2.99,14.308 -3.31,4.738 -10.14,5.969 -15.01,2.879 -1.17,-0.73 -28.58,-18.269 -56.18,-54.398 -3.53,-4.61 -2.44,-11.082 2.4,-14.43 3.21,-2.211 7.27,-2.512 10.68,-1.129" /><path
         id="path164"
         style="fill:#ffffff;fill-opacity:1;fill-rule:nonzero;stroke:none"
         d="m 5527.16,646.898 80.55,548.312 197.22,-63.17 -103.17,-480.739 -174.6,-4.403" /><path
         id="path166"
         style="fill:#101010;fill-opacity:1;fill-rule:nonzero;stroke:none"
         d="m 5533.81,720.809 c 0,0 131.65,-71.457 188.29,32.242 l 368.75,-220.422 -615.78,3.961 58.74,184.219" /><path
         id="path168"
         style="fill:#ffffff;fill-opacity:1;fill-rule:nonzero;stroke:none"
         d="m 6090.45,476.07 -615.78,3.961 0.4,56.559 615.78,-3.961 -0.4,-56.559" /><path
         id="path170"
         style="fill:#ffffff;fill-opacity:1;fill-rule:nonzero;stroke:none"
         d="m 5755.8,645.211 c 1.73,0.711 3.28,1.848 4.48,3.41 25.14,32.938 50.37,49.188 50.63,49.359 4.98,3.161 6.32,9.571 2.99,14.309 -3.31,4.762 -10.13,5.91 -15.01,2.891 -1.18,-0.739 -28.58,-18.282 -56.18,-54.418 -3.52,-4.633 -2.44,-11.082 2.41,-14.43 3.21,-2.211 7.27,-2.512 10.68,-1.121" /><path
         id="path172"
         style="fill:#ffffff;fill-opacity:1;fill-rule:nonzero;stroke:none"
         d="m 5808.65,618.77 c 1.73,0.699 3.29,1.851 4.48,3.41 25.14,32.941 50.39,49.199 50.63,49.359 4.98,3.16 6.32,9.57 2.99,14.32 -3.31,4.743 -10.15,5.961 -15.01,2.871 -1.17,-0.718 -28.58,-18.269 -56.18,-54.41 -3.52,-4.621 -2.43,-11.078 2.41,-14.429 3.21,-2.211 7.27,-2.52 10.68,-1.121" /><path
         id="path174"
         style="fill:#ffffff;fill-opacity:1;fill-rule:nonzero;stroke:none"
         d="m 5861.49,592.332 c 1.73,0.719 3.3,1.859 4.5,3.418 25.13,32.922 50.38,49.18 50.62,49.352 4.98,3.16 6.33,9.57 3,14.308 -3.31,4.738 -10.15,5.969 -15.02,2.879 -1.17,-0.73 -28.57,-18.269 -56.18,-54.398 -3.53,-4.61 -2.44,-11.082 2.4,-14.43 3.21,-2.211 7.29,-2.512 10.68,-1.129" /><path
         id="path176"
         style="fill:#000000;fill-opacity:1;fill-rule:nonzero;stroke:none"
         d="m 6288.97,2801.67 c 0,0 62.23,1.55 71.89,-285.92 1.98,-59.09 0.81,-141.17 -2.88,-200.16 L 6278.67,793.141 h -288.65 l 74.39,1572.759 -273.03,-1572.759 -300.39,6.468 320.1,2002.061 221.96,28.19 255.92,-28.19" /><path
         id="path178"
         style="fill:#434141;fill-opacity:1;fill-rule:nonzero;stroke:none"
         d="m 6065.18,2362.61 124.78,29.13 c 1.81,0.43 2.94,2.24 2.52,4.06 -0.43,1.81 -2.24,2.94 -4.06,2.52 l -124.77,-29.13 c -1.82,-0.43 -2.95,-2.24 -2.52,-4.06 0.42,-1.81 2.24,-2.94 4.05,-2.52" /><path
         id="path180"
         style="fill:#212e38;fill-opacity:1;fill-rule:nonzero;stroke:none"
         d="m 5892,3633.49 c 0,0 108.65,-110.39 234.24,-158.06 125.59,-47.66 367.7,-200.96 551.5,-215.03 l -61.13,256.51 -398.76,217.53 L 5892,3633.49" /><path
         id="path182"
         style="fill:#e9b089;fill-opacity:1;fill-rule:nonzero;stroke:none"
         d="m 6928.39,3905.6 9.1,67.29 c 1.82,13.4 11.31,24.51 24.28,28.4 l 79.74,23.85 c 11.58,3.47 24.01,-1.52 29.98,-12.03 v 0 c 7.16,-12.6 2.6,-28.63 -10.13,-35.58 l -38.18,-20.82 c 0,0 52.98,-42.14 1.86,-98.67 l -96.65,47.56" /><path
         id="path184"
         style="fill:#e9b089;fill-opacity:1;fill-rule:nonzero;stroke:none"
         d="m 6961.77,4001.29 104.11,142.05 c 6.99,9.55 20.7,10.97 29.5,3.05 6.75,-6.07 8.57,-15.93 4.41,-24 l -65.49,-127.48 -72.53,6.38" /><path
         id="path186"
         style="fill:#e9b089;fill-opacity:1;fill-rule:nonzero;stroke:none"
         d="m 7045.49,4035.93 39.97,13.59 c 8.43,2.16 17.38,0.23 24.17,-5.21 l 9.22,-7.37 c 10.48,-8.38 13.44,-23.06 7.05,-34.85 l -51.02,-90.92 -65.63,48.33 36.24,76.43" /><path
         id="path188"
         style="fill:#e9b089;fill-opacity:1;fill-rule:nonzero;stroke:none"
         d="m 7118.39,4022.77 h 14.88 c 7.13,0 13.98,-2.8 19.06,-7.79 l 12.31,-12.06 c 5.22,-5.12 8.17,-12.13 8.17,-19.45 0,-5.9 -1.91,-11.63 -5.45,-16.35 l -65.36,-87.07 -56.66,42.19 73.05,100.53" /><path
         id="path190"
         style="fill:#e9b089;fill-opacity:1;fill-rule:nonzero;stroke:none"
         d="m 7142.29,3988.29 h 14.88 c 7.13,0 13.97,-2.79 19.06,-7.78 l 12.31,-12.06 c 5.23,-5.12 8.17,-12.13 8.17,-19.45 0,-5.9 -1.92,-11.64 -5.45,-16.35 l -22.95,-30.57 c -23.45,-31.24 -67.73,-37.64 -99.06,-14.31 l 73.04,100.52" /><path
         id="path192"
         style="fill:#e9b089;fill-opacity:1;fill-rule:nonzero;stroke:none"
         d="m 7136.86,3884.22 -30.55,-33.76 c -29.08,-32.14 -78.72,-34.63 -110.87,-5.54 l -67.05,60.68 51.99,66.49 h 64.96 l 56.66,-39.24 34.86,-48.63" /><path
         id="path194"
         style="fill:#000000;fill-opacity:1;fill-rule:nonzero;stroke:none"
         d="m 6968.14,3999.53 86.73,28.82 -0.9,2.69 0.83,-2.71 c 2.03,0.62 4.07,0.91 6.09,0.91 8.85,0 17.06,-5.7 19.84,-14.6 v 0 c 0.64,-2.05 0.95,-4.14 0.95,-6.21 0,-6.26 -2.83,-12.32 -7.92,-16.32 l 1.76,-2.23 -1.52,2.39 -52.33,-33.16 c -0.88,-0.55 -1.38,-1.52 -1.32,-2.55 0.06,-1.03 0.66,-1.94 1.59,-2.39 l 0.19,-0.1 c 1.12,-0.59 6.75,-3.72 11.97,-9.51 5.23,-5.8 10.04,-14.1 10.05,-25.43 0,-9.85 -3.67,-22.23 -14.57,-37.43 -0.91,-1.27 -0.62,-3.04 0.65,-3.96 1.27,-0.91 3.05,-0.62 3.96,0.66 11.39,15.86 15.64,29.43 15.63,40.73 0.01,13.89 -6.41,24.02 -12.7,30.5 -6.3,6.5 -12.51,9.54 -12.69,9.63 l -1.25,-2.55 1.52,-2.39 52.34,33.16 0.23,0.17 c 6.48,5.11 10.08,12.82 10.08,20.78 0,2.64 -0.39,5.3 -1.21,7.9 v 0 c -3.54,11.32 -13.97,18.58 -25.25,18.58 -2.57,0 -5.17,-0.37 -7.74,-1.16 l -0.07,-0.02 -86.73,-28.82 c -1.49,-0.49 -2.29,-2.1 -1.8,-3.58 0.5,-1.49 2.1,-2.29 3.59,-1.8" /><path
         id="path196"
         style="fill:#e9b089;fill-opacity:1;fill-rule:nonzero;stroke:none"
         d="m 6928.39,3905.6 -111.62,-153.18 124.49,-92.94 114.12,189.02 -126.99,57.1" /><path
         id="path198"
         style="fill:#212e38;fill-opacity:1;fill-rule:nonzero;stroke:none"
         d="m 6566.7,3477.46 289.65,380.46 180.94,-140.07 -250.28,-396.76 c -50.77,-64.68 -124.4,-80.53 -182.79,-33.54 -52.35,42.12 -104.11,138.72 -37.52,189.91" /><path
         id="path200"
         style="fill:#212e38;fill-opacity:1;fill-rule:nonzero;stroke:none"
         d="m 5756.22,3619.49 229.85,168.4 117.07,-1.41 c 0,0 116.68,-19.02 202.11,-140.97 85.43,-121.95 68.13,-1102.86 68.13,-1102.86 0,0 -88.55,8.2 -90.47,149.43 0,0 -29.83,-191.54 -191.91,-211.31 -162.08,-19.77 -425.47,31 -425.47,31 l 180.34,471.88 -144.96,408.31 c -25.72,80.22 -4.37,168.07 55.31,227.53" /><path
         id="path202"
         style="fill:#39505e;fill-opacity:1;fill-rule:nonzero;stroke:none"
         d="m 6217.85,3734.44 69.03,-121.55 -35.25,0.43 38.55,-49.69 c 0,0 23.64,-151.5 -35.39,-334 l -164.31,527.58 12.66,29.27 c 0,0 44.73,-8.72 79.72,-30.38" /><path
         id="path204"
         style="fill:#ffffff;fill-opacity:1;fill-rule:nonzero;stroke:none"
         d="m 5903.94,3727.71 c 0,0 269.53,-215.86 350.85,-498.08 0,0 29.85,346.97 -151.65,556.85 l -117.07,1.41 -82.13,-60.18" /><g
         id="g206"><g
           clip-path="url(#clipPath212)"
           id="g208"><path
             id="path214"
             style="fill:#e9b089;fill-opacity:1;fill-rule:nonzero;stroke:none"
             d="m 5915.89,3677.41 c 0,0 268.78,-116.16 258.17,69.69 l -82.26,158.5 c 0,0 -183.72,-57.23 -194.77,-60.06 l -48.38,-64.8 -13.57,-44.41 80.81,-58.92" /></g></g><path
         id="path216"
         style="fill:#39505e;fill-opacity:1;fill-rule:nonzero;stroke:none"
         d="m 5903.94,3727.71 -56.71,-41.55 75.26,-130.09 75.17,-0.9 -52.4,-51.7 c 0,0 198.68,-156.04 309.53,-273.84 0,0 -73.58,285.81 -350.85,498.08" /><path
         id="path218"
         style="fill:#000000;fill-opacity:1;fill-rule:nonzero;stroke:none"
         d="m 6359.5,3366.5 c -0.01,0.1 -3.88,89.38 -23.3,159.54 -0.42,1.51 -1.98,2.39 -3.49,1.98 -1.51,-0.42 -2.39,-1.98 -1.98,-3.49 9.59,-34.6 15.38,-74.22 18.76,-105.15 1.69,-15.46 2.78,-28.76 3.44,-38.18 0.66,-9.42 0.9,-14.94 0.91,-14.95 0.06,-1.57 1.39,-2.78 2.95,-2.71 1.57,0.07 2.78,1.39 2.71,2.96" /><path
         id="path220"
         style="fill:#212e38;fill-opacity:1;fill-rule:nonzero;stroke:none"
         d="m 5840.7,3680.99 c 0,0 -114.52,-34.72 -176.6,-153.84 -62.09,-119.12 -250.6,-401.77 -286.16,-582.65 l 261.91,30.58 253.86,370.46 -53.01,335.45" /><path
         id="path222"
         style="fill:#000000;fill-opacity:1;fill-rule:nonzero;stroke:none"
         d="m 5779.9,3174.44 116.15,169.5 c 0.89,1.29 0.56,3.06 -0.74,3.94 -1.29,0.89 -3.05,0.56 -3.94,-0.73 l -116.15,-169.5 c -0.89,-1.29 -0.56,-3.06 0.74,-3.94 1.29,-0.89 3.05,-0.56 3.94,0.73" /><path
         id="path224"
         style="fill:#c27f22;fill-opacity:1;fill-rule:nonzero;stroke:none"
         d="m 6457.71,3071.94 -425.89,171.08 -42.95,-102.01 415.98,-162.36 52.86,93.29" /><path
         id="path226"
         style="fill:#ffffff;fill-opacity:1;fill-rule:nonzero;stroke:none"
         d="m 6020.56,3174.01 22.1,48.48 399.38,-164.03 -23.96,-48.54 -397.52,164.09" /><path
         id="path228"
         style="fill:#d59934;fill-opacity:1;fill-rule:nonzero;stroke:none"
         d="m 6420.48,3039.91 -245.23,-587.31 -420.11,177.09 236.76,585.9 428.58,-175.68" /><path
         id="path230"
         style="fill:#c27f22;fill-opacity:1;fill-rule:nonzero;stroke:none"
         d="m 6420.48,3039.91 37.23,32.03 -242.78,-585.86 -39.68,-33.48 245.23,587.31" /><path
         id="path232"
         style="fill:#ffffff;fill-opacity:1;fill-rule:nonzero;stroke:none"
         d="m 5995,2984.94 268.48,-110.15 29.8,70.31 -268.47,110.14 -29.81,-70.3" /><path
         id="path234"
         style="fill:#e9b089;fill-opacity:1;fill-rule:nonzero;stroke:none"
         d="m 5799.78,2878.97 296.8,-160.46 -33.04,-115.18 -311.81,107.51 48.05,168.13" /><path
         id="path236"
         style="fill:#e9b089;fill-opacity:1;fill-rule:nonzero;stroke:none"
         d="m 6096.58,2718.51 c 0,0 210.36,38.15 202.46,-37.51 -7.91,-75.66 -45.65,-254.29 -235.5,-77.67 l 33.04,115.18" /><path
         id="path238"
         style="fill:#e9b089;fill-opacity:1;fill-rule:nonzero;stroke:none"
         d="m 6089.71,2709.93 28.47,30.51 c 16.42,17.61 37.75,29.87 61.21,35.21 l 43.46,9.9 c 10.43,2.37 21.11,-2.71 25.86,-12.29 5.18,-10.45 1.75,-23.12 -7.99,-29.55 l -62.57,-41.3 -88.44,7.52" /><path
         id="path240"
         style="fill:#212e38;fill-opacity:1;fill-rule:nonzero;stroke:none"
         d="m 5582.92,3057.37 472.57,-251.91 -92.01,-221.22 -495.96,208.7 c -76.57,29.97 -112.97,95.91 -84.81,165.37 25.25,62.27 132,148.08 200.21,99.06" /><path
         id="path242"
         style="fill:#000000;fill-opacity:1;fill-rule:nonzero;stroke:none"
         d="m 5666.86,3015.84 -82.61,44.04 c -1.38,0.73 -3.1,0.21 -3.83,-1.17 -0.74,-1.38 -0.22,-3.1 1.17,-3.84 l 82.6,-44.03 c 1.38,-0.74 3.1,-0.22 3.84,1.17 0.74,1.38 0.21,3.1 -1.17,3.83" /><path
         id="path244"
         style="fill:#d7896d;fill-opacity:1;fill-rule:nonzero;stroke:none"
         d="m 6156.25,4021.95 c 1.98,19.94 7.39,39.5 16.88,57.73 13,25 32.91,48.98 62.82,34.85 50.93,-24.06 0.69,-107.02 -51.53,-113.76 -15.36,-1.98 -29.43,8.63 -28.17,21.18" /><path
         id="path246"
         style="fill:#744028;fill-opacity:1;fill-rule:nonzero;stroke:none"
         d="m 6249.09,4223.32 c -10.28,-108.34 -103.2,-231.21 -220.38,-231.46 -117.18,-0.25 -193.44,91.49 -221.3,196.69 -31.27,118.06 103.28,198.79 220.46,197.38 73.78,-0.89 232.41,-44.8 221.22,-162.61" /><path
         id="path248"
         style="fill:#e9b089;fill-opacity:1;fill-rule:nonzero;stroke:none"
         d="m 5969.74,4031.67 -29.89,-321.05 165.95,-0.3 -10.04,287.71 -126.02,33.64" /><path
         id="path250"
         style="fill:#d7896d;fill-opacity:1;fill-rule:nonzero;stroke:none"
         d="m 6101.58,3830.52 -108.15,105.05 102.69,42.15 z" /><path
         id="path252"
         style="fill:#e9b089;fill-opacity:1;fill-rule:nonzero;stroke:none"
         d="m 5994.53,4341.38 c 35.91,9.89 74.03,12.19 110.5,4.59 49.39,-10.29 112.75,-41.2 120.86,-131.46 13.52,-150.43 -4.52,-271.77 -78.75,-305.97 -56.99,-26.25 -98.55,-16.25 -164.29,21.87 -24.46,14.18 -47.93,74.54 -54.61,103.34 l -28.36,80.41 c 0,0 -76.95,179.94 94.65,227.22" /><path
         id="path254"
         style="fill:#000000;fill-opacity:1;fill-rule:nonzero;stroke:none"
         d="m 6134.02,4117.78 23.52,-51.15 -16.6,-13.12 c -0.94,-0.74 -1.1,-2.12 -0.35,-3.06 0.74,-0.94 2.11,-1.1 3.06,-0.36 l 17.94,14.19 c 0.78,0.62 1.04,1.7 0.62,2.62 l -24.24,52.7 c -0.5,1.1 -1.79,1.57 -2.88,1.07 -1.1,-0.5 -1.58,-1.79 -1.07,-2.89" /><path
         id="path256"
         style="fill:#744028;fill-opacity:1;fill-rule:nonzero;stroke:none"
         d="m 6161.31,4229.59 c 0,0 -6.23,-21.69 16.91,-25.92 17.58,-3.21 28.74,-4.92 38.58,-9.79 5.58,-2.77 12.11,-0.42 15.45,5.51 2.69,4.79 2.8,10.95 0.12,15.7 -5.42,9.62 -17.04,24.53 -38.39,28.77 -27.41,5.46 -32.67,-14.27 -32.67,-14.27" /><path
         id="path258"
         style="fill:#744028;fill-opacity:1;fill-rule:nonzero;stroke:none"
         d="m 6091.68,4231.03 c 0,0 7.63,-21.7 -24.88,-25.88 -24.68,-3.17 -54.22,-13.45 -68.18,-18.3 -7.93,-2.76 -16.91,-0.4 -21.29,5.54 -3.52,4.8 -3.37,10.97 0.6,15.72 8.04,9.61 38.84,33.09 68.84,37.28 38.52,5.4 44.91,-14.36 44.91,-14.36" /><path
         id="path260"
         style="fill:#ffffff;fill-opacity:1;fill-rule:nonzero;stroke:none"
         d="m 6098.53,4125.81 c 0,0 -15.49,59.5 -93.81,16.05 0,0 31.7,-61.84 93.81,-16.05" /><g
         id="g262"><g
           clip-path="url(#clipPath268)"
           id="g264"><path
             id="path270"
             style="fill:#000000;fill-opacity:1;fill-rule:nonzero;stroke:none"
             d="m 6083.14,4134.05 c 1.86,-15.35 -8.71,-29.26 -23.6,-31.06 -14.89,-1.8 -28.48,9.19 -30.33,24.55 -1.86,15.35 8.72,29.26 23.61,31.07 14.89,1.79 28.47,-9.2 30.32,-24.56" /></g></g><path
         id="path272"
         style="fill:#000000;fill-opacity:1;fill-rule:nonzero;stroke:none"
         d="m 6003.69,4143.24 c 7.43,5.57 15.86,9.78 24.7,12.54 8.9,2.7 17.92,4.54 27.51,4.4 9.33,-0.34 18.94,-2.43 27.3,-7.58 8.26,-5.33 14.77,-13.32 17.12,-23.65 0.44,-1.92 -0.76,-3.83 -2.67,-4.27 -1.92,-0.43 -3.82,0.77 -4.26,2.68 l -0.03,0.12 -0.07,0.4 c -1.41,7.47 -6.62,15.03 -13.44,19.6 -6.95,4.66 -15.53,6.96 -24.21,7.58 -8.51,0.44 -17.56,-1.06 -26.02,-3.38 -8.52,-2.38 -16.64,-6.13 -23.88,-11.21 l -2.4,0.37 0.35,2.4" /><path
         id="path274"
         style="fill:#ffffff;fill-opacity:1;fill-rule:nonzero;stroke:none"
         d="m 6157.53,4126.4 c 0,0 23.22,59.05 66.28,18.35 0,0 -16.72,-58 -66.28,-18.35" /><g
         id="g276"><g
           clip-path="url(#clipPath282)"
           id="g278"><path
             id="path284"
             style="fill:#000000;fill-opacity:1;fill-rule:nonzero;stroke:none"
             d="m 6172.71,4138.01 c -2.31,-14.1 4.86,-27.01 16.02,-28.83 11.16,-1.84 22.09,8.11 24.4,22.21 2.31,14.09 -4.87,27 -16.03,28.84 -11.16,1.82 -22.08,-8.12 -24.39,-22.22" /></g></g><path
         id="path286"
         style="fill:#000000;fill-opacity:1;fill-rule:nonzero;stroke:none"
         d="m 6222.6,4143.93 c -3.28,4.61 -7.59,8.46 -12.65,10.62 -4.98,2.17 -10.93,2.62 -15.91,1.37 l -0.29,-0.06 c -7.31,-1.29 -14.16,-4.65 -19.56,-9.75 -5.4,-4.98 -9.78,-11.54 -12.41,-18.16 l -0.08,-0.2 c -0.61,-1.54 -2.35,-2.29 -3.9,-1.68 -1.54,0.61 -2.29,2.36 -1.68,3.9 l 0.03,0.07 c 1.74,4.05 3.81,7.45 6.24,10.83 2.44,3.32 5.25,6.39 8.39,9.09 3.11,2.74 6.67,4.98 10.44,6.71 3.75,1.85 7.86,2.74 11.92,3.43 l -0.28,-0.06 c 6.49,1.35 12.84,0.45 18.57,-2.21 5.68,-2.69 10.26,-7.19 13.58,-12.27 l -0.42,-2.01 -1.99,0.38" /><path
         id="path288"
         style="fill:#000000;fill-opacity:1;fill-rule:nonzero;stroke:none"
         d="m 6078.31,4023.16 c 0.16,-0.07 21.45,-11.41 47.22,-11.43 15.42,-0.01 32.55,4.15 47.3,17.41 l 0.17,3.07 -3.08,0.17 c -13.83,-12.41 -29.71,-16.28 -44.39,-16.29 -12.24,0 -23.58,2.73 -31.84,5.48 -4.13,1.37 -7.48,2.74 -9.8,3.76 -2.31,1.03 -3.54,1.69 -3.54,1.68 -1.07,0.56 -2.38,0.16 -2.95,-0.9 -0.56,-1.06 -0.16,-2.38 0.91,-2.95" /><path
         id="path290"
         style="fill:#744028;fill-opacity:1;fill-rule:nonzero;stroke:none"
         d="m 5929.97,4070.58 c 0,0 72.03,228.78 -34.56,234.59 l -58.36,-113.97 31.3,-95.18 61.62,-25.44" /><path
         id="path292"
         style="fill:#e9b089;fill-opacity:1;fill-rule:nonzero;stroke:none"
         d="m 5948.56,4021.86 c -4.45,20.61 -12.45,40.41 -24.53,58.33 -16.58,24.59 -40.24,47.27 -69.83,28.93 -50.37,-31.23 12.05,-111.95 67.44,-112.77 16.3,-0.24 29.74,12.54 26.92,25.51" /><path
         id="path294"
         style="fill:#000000;fill-opacity:1;fill-rule:nonzero;stroke:none"
         d="m 5868.73,4066.52 c 5,1.71 9.63,2.44 13.94,2.44 14.05,0.01 24.92,-7.81 32.39,-15.86 3.72,-4.01 6.56,-8.04 8.45,-11.06 0.95,-1.5 1.66,-2.76 2.13,-3.63 l 0.69,-1.32 c 0.51,-1.09 1.81,-1.55 2.9,-1.03 1.08,0.52 1.55,1.82 1.03,2.9 -0.07,0.13 -4.09,8.57 -12,17.11 -7.89,8.51 -19.83,17.24 -35.59,17.25 -4.8,0 -9.93,-0.82 -15.35,-2.68 -1.14,-0.39 -1.74,-1.62 -1.35,-2.76 0.39,-1.14 1.63,-1.75 2.76,-1.36" /><path
         id="path296"
         style="fill:#744028;fill-opacity:1;fill-rule:nonzero;stroke:none"
         d="m 5910.94,4300.45 c 0,0 265.78,-68.66 357.43,57.37 0,0 -168.44,93.98 -311.82,16.53 l -45.61,-73.9" /><path
         id="path298"
         style="fill:#744028;fill-opacity:1;fill-rule:nonzero;stroke:none"
         d="m 5911.42,4340.77 c 0,0 57.89,91.25 163.73,92.43 0,0 -28.98,-73.06 -91.84,-93.13 -62.86,-20.09 -71.89,0.7 -71.89,0.7" /><path
         id="path300"
         style="fill:#744028;fill-opacity:1;fill-rule:nonzero;stroke:none"
         d="m 5877.89,4306.32 c 0,0 3.05,59.89 53.87,89.38 0,0 5.95,-43.22 -18.94,-70.08 -24.89,-26.88 -34.93,-19.3 -34.93,-19.3" /><path
         id="path302"
         style="fill:#ffffff;fill-opacity:1;fill-rule:nonzero;stroke:none"
         d="m 3026.9,823.242 h 171.57 l 0.08,-234.98 h -171.57 l -0.08,234.98" /><path
         id="path304"
         style="fill:#000000;fill-opacity:1;fill-rule:nonzero;stroke:none"
         d="m 3189.38,650.102 -67.7,-45.141 -75.3,23.777 c -5.9,1.871 -12.26,1.594 -17.97,-0.758 -9.85,-4.07 -16.28,-13.671 -16.28,-24.339 v -96.43 h 506.49 c 0,0 -0.65,84.508 -126.11,64.168 l -177.42,80.793 c -8.35,3.808 -18.07,3.019 -25.71,-2.07" /><path
         id="path306"
         style="fill:#000000;fill-opacity:1;fill-rule:nonzero;stroke:none"
         d="m 3137.19,474.949 h -125.06 v 32.262 h 125.06 v -32.262" /><path
         id="path308"
         style="fill:#000000;fill-opacity:1;fill-rule:nonzero;stroke:none"
         d="m 3137.19,507.211 66.32,-32.262 h 315.11 v 32.262 h -381.43" /><path
         id="path310"
         style="fill:#ffffff;fill-opacity:1;fill-rule:nonzero;stroke:none"
         d="m 2543.11,823.242 h 171.56 l -29.92,-234.98 h -171.57 l 29.93,234.98" /><path
         id="path312"
         style="fill:#000000;fill-opacity:1;fill-rule:nonzero;stroke:none"
         d="m 2675.58,650.102 -67.7,-45.141 -75.3,23.777 c -5.9,1.871 -12.26,1.594 -17.97,-0.758 -9.85,-4.07 -16.28,-13.671 -16.28,-24.339 v -96.43 h 506.49 c 0,0 -0.65,84.508 -126.11,64.168 l -177.42,80.793 c -8.35,3.808 -18.07,3.019 -25.71,-2.07" /><path
         id="path314"
         style="fill:#000000;fill-opacity:1;fill-rule:nonzero;stroke:none"
         d="m 2623.39,474.949 h -125.06 v 32.262 h 125.06 v -32.262" /><path
         id="path316"
         style="fill:#000000;fill-opacity:1;fill-rule:nonzero;stroke:none"
         d="m 2623.39,507.211 66.32,-32.262 h 315.11 v 32.262 h -381.43" /><path
         id="path318"
         style="fill:#212e38;fill-opacity:1;fill-rule:nonzero;stroke:none"
         d="m 3204.56,3001.31 c 0,0 16.96,-33.11 27.52,-347.39 2.16,-64.6 12.5,-180.24 13.2,-284.19 l -4.4,-1645.671 h -266.61 l -30.28,1719.631 -195.86,-1719.631 -269.8,7.07 159.05,2209.341 252.48,30.81 314.7,30.03" /><path
         id="path320"
         style="fill:#000000;fill-opacity:1;fill-rule:nonzero;stroke:none"
         d="m 2944.89,2441.59 134.05,57.71 c 1.16,0.5 1.69,1.84 1.19,3 -0.5,1.16 -1.84,1.7 -3,1.2 l -134.05,-57.71 c -1.16,-0.5 -1.69,-1.84 -1.19,-3 0.5,-1.16 1.84,-1.7 3,-1.2" /><path
         id="path322"
         style="fill:#e9b089;fill-opacity:1;fill-rule:nonzero;stroke:none"
         d="m 3191.09,2899.88 256.7,-558.01 81.64,5.66 c -99.09,380.9 -98.92,380.31 -171.68,615.23 -11.52,37.21 -86.54,46.12 -122.71,31.63 -33.88,-13.56 -57.48,-60.61 -43.95,-94.51" /><path
         id="path324"
         style="fill:#e9b089;fill-opacity:1;fill-rule:nonzero;stroke:none"
         d="m 3440.6,2391.9 c 0,0 -21.47,-75.84 14.58,-144.69 l -7.43,-75.69 c -1.16,-11.75 6.55,-22.29 18.06,-24.71 12.46,-2.63 25.06,5.12 28.45,17.52 l 12.15,44.33 4.3,-15.2 c 6.83,-24.13 5.2,-50.1 -4.63,-73.68 l -27.98,-67.12 c -3.18,-7.64 -11.98,-6.27 -6.86,-12.53 9.89,-12.1 29.23,-10.12 37.19,3.82 l 57.78,73.64 c 18.51,32.42 22.3,70.79 10.4,105.3 l -73.98,195.44 -62.03,-26.43" /><path
         id="path326"
         style="fill:#ffffff;fill-opacity:1;fill-rule:nonzero;stroke:none"
         d="m 3377.86,2971.28 -22.19,355.18 c -31.42,272.16 -201.33,344.77 -201.33,344.77 l -14.34,-463.28 51.53,28.32 36.6,-483.01 155.85,-362.29 152.58,63.55 -158.7,516.76" /><path
         id="path328"
         style="fill:#744028;fill-opacity:1;fill-rule:nonzero;stroke:none"
         d="m 2886.74,3736.45 c -72.22,-6.16 -143.47,-21.69 -211,-48.02 -19.01,-7.41 -37.89,-15.66 -54.98,-24.6 -48.16,-25.2 -33.75,-79.64 -27.7,-135.24 l 28.3,-751.62 587.72,14.27 c 26.65,0.63 47.49,23.18 46.02,49.8 l -23.25,602.79 c -2.23,105.78 -20.54,208.7 -91.43,233.69 -79.41,28 -176.35,59.37 -218.61,61.91 l -35.07,-2.98" /><path
         id="path330"
         style="fill:#ffffff;fill-opacity:1;fill-rule:nonzero;stroke:none"
         d="m 3104.68,3689.91 c 0,0 -111.61,43.71 -182.87,49.52 0,0 -97.35,-4.13 -164.28,-24.76 l 243.82,-320.87 103.33,296.11" /><path
         id="path332"
         style="fill:#294286;fill-opacity:1;fill-rule:nonzero;stroke:none"
         d="m 2968.4,3684.05 -49.14,-61.99 58.43,-42.45 46.51,49.32 -55.8,55.12" /><path
         id="path334"
         style="fill:#294286;fill-opacity:1;fill-rule:nonzero;stroke:none"
         d="m 2965.3,3606.01 -29.45,-126.01 65.5,-86.2 22.85,65.49 -39.08,146.72 h -19.82" /><path
         id="path336"
         style="fill:#e0e0e0;fill-opacity:1;fill-rule:nonzero;stroke:none"
         d="m 2913.92,3620.78 -11.83,-17.82 -76.14,32.32 c -1.91,0.81 -4.11,-0.08 -4.92,-1.98 -0.81,-1.91 0.08,-4.11 1.99,-4.92 l 79.01,-33.54 c 1.66,-0.71 3.58,-0.13 4.59,1.38 l 13.55,20.42 c 1.14,1.72 0.67,4.05 -1.06,5.2 -1.72,1.14 -4.05,0.67 -5.19,-1.06" /><path
         id="path338"
         style="fill:#e0e0e0;fill-opacity:1;fill-rule:nonzero;stroke:none"
         d="m 3021.63,3626.2 18.07,-16.99 c 1.34,-1.25 3.4,-1.36 4.85,-0.24 l 41.38,31.72 c 1.65,1.26 1.96,3.61 0.7,5.26 -1.26,1.64 -3.62,1.95 -5.26,0.69 l -38.85,-29.78 -15.75,14.8 c -1.51,1.42 -3.88,1.35 -5.3,-0.16 -1.42,-1.51 -1.35,-3.88 0.16,-5.3" /><path
         id="path340"
         style="fill:#ffffff;fill-opacity:1;fill-rule:nonzero;stroke:none"
         d="m 2642.57,3675.22 c 0,0 -181.56,-29.24 -568.19,-554.19 l 199.18,-155.63 319.36,369.63 c 125.32,163.61 49.65,340.19 49.65,340.19" /><path
         id="path342"
         style="fill:#000000;fill-opacity:1;fill-rule:nonzero;stroke:none"
         d="m 2526.27,3498.64 431.35,-156.79 -36.08,-104.65 -418.17,156.7 22.9,104.74" /><path
         id="path344"
         style="fill:#ffffff;fill-opacity:1;fill-rule:nonzero;stroke:none"
         d="m 2919.96,3282.93 15.89,50.85 -406.9,144.36 -14.55,-52.14 405.56,-143.07" /><path
         id="path346"
         style="fill:#212e38;fill-opacity:1;fill-rule:nonzero;stroke:none"
         d="m 2532.62,3449.94 -209.31,-601.04 431.06,-148.48 214.67,594.36 -436.42,155.16" /><path
         id="path348"
         style="fill:#000000;fill-opacity:1;fill-rule:nonzero;stroke:none"
         d="m 2532.62,3449.94 -6.35,48.7 -210.17,-598.33 7.21,-51.41 209.31,601.04" /><path
         id="path350"
         style="fill:#ffffff;fill-opacity:1;fill-rule:nonzero;stroke:none"
         d="m 2812.81,3125.06 -273.45,97.14 24.72,72.25 273.44,-97.14 -24.71,-72.25" /><path
         id="path352"
         style="fill:#e9b089;fill-opacity:1;fill-rule:nonzero;stroke:none"
         d="m 2383.6,3074 317.16,-115.16 -15.78,-118.78 -324.22,60.58 22.84,173.36" /><path
         id="path354"
         style="fill:#e9b089;fill-opacity:1;fill-rule:nonzero;stroke:none"
         d="m 2700.76,2958.84 c 0,0 202.48,68.63 205.76,-7.38 3.29,-76 -7.82,-258.23 -221.54,-111.4 l 15.78,118.78" /><path
         id="path356"
         style="fill:#e9b089;fill-opacity:1;fill-rule:nonzero;stroke:none"
         d="m 2695.21,2949.35 23.69,34.37 c 13.65,19.82 32.95,35.08 55.38,43.81 l 41.54,16.17 c 9.96,3.88 21.27,0.42 27.37,-8.36 6.66,-9.58 5.13,-22.62 -3.56,-30.41 l -55.82,-50.03 -88.6,-5.55" /><path
         id="path358"
         style="fill:#ffffff;fill-opacity:1;fill-rule:nonzero;stroke:none"
         d="m 2223.65,3156.58 411.17,-133.22 -38.05,-209.24 -458.94,114.59 c -71.27,21.42 -106.94,101.08 -75.45,168.51 28.35,60.7 100.33,87.19 161.27,59.36" /><path
         id="path360"
         style="fill:#e0e0e0;fill-opacity:1;fill-rule:nonzero;stroke:none"
         d="m 2386.29,3107.83 -111.57,36.15 c -1.97,0.64 -4.08,-0.44 -4.72,-2.41 -0.64,-1.97 0.44,-4.09 2.41,-4.73 l 111.57,-36.15 c 1.97,-0.64 4.08,0.44 4.72,2.41 0.64,1.97 -0.44,4.09 -2.41,4.73" /><path
         id="path362"
         style="fill:#ffffff;fill-opacity:1;fill-rule:nonzero;stroke:none"
         d="m 2946.39,4382.89 c 0,0 138.98,62.29 210.97,-13.53 56.47,-59.47 -39.66,-163.09 -91.11,-157.29 -51.44,5.8 -119.86,170.82 -119.86,170.82" /><path
         id="path364"
         style="fill:#d7896d;fill-opacity:1;fill-rule:nonzero;stroke:none"
         d="m 3062.7,4027.02 c 1.8,20.49 7.12,40.64 16.62,59.46 13.04,25.84 33.18,50.69 64.05,36.56 52.59,-24.08 2.04,-109.86 -51.48,-117.42 -15.75,-2.23 -30.32,8.5 -29.19,21.4" /><path
         id="path366"
         style="fill:#ffffff;fill-opacity:1;fill-rule:nonzero;stroke:none"
         d="m 3134.19,4199.5 c 1.58,-111.72 -81.75,-203.25 -202.04,-204.96 -120.29,-1.7 -219.1,87.48 -220.68,199.19 -1.58,111.71 94.65,203.65 214.95,205.36 120.29,1.7 206.19,-87.88 207.77,-199.59" /><path
         id="path368"
         style="fill:#e9b089;fill-opacity:1;fill-rule:nonzero;stroke:none"
         d="m 2871.11,4034.68 -24.5,-302.69 121.79,-47.94 45.78,34.86 -13.27,282.8 -129.8,32.97" /><path
         id="path370"
         style="fill:#d7896d;fill-opacity:1;fill-rule:nonzero;stroke:none"
         d="m 3008.96,3829.82 -112.34,106.51 104.9,44.53 z" /><path
         id="path372"
         style="fill:#e9b089;fill-opacity:1;fill-rule:nonzero;stroke:none"
         d="m 2892.73,4352.94 c 36.75,10.6 75.86,13.42 113.39,6.07 50.83,-9.95 116.26,-40.9 125.7,-133.46 15.74,-154.26 -1.29,-279.04 -77.07,-315.07 -58.18,-27.66 -100.96,-17.91 -168.92,20.41 -25.29,14.27 -50.13,75.94 -57.34,105.41 l -30.11,82.2 c 0,0 -81.22,183.78 94.35,234.44" /><path
         id="path374"
         style="fill:#000000;fill-opacity:1;fill-rule:nonzero;stroke:none"
         d="m 3042.34,4114.02 17.46,-33.68 -12.42,-10.08 c -0.96,-0.78 -1.11,-2.18 -0.33,-3.14 0.77,-0.96 2.18,-1.11 3.14,-0.33 l 13.85,11.22 c 0.82,0.67 1.06,1.83 0.57,2.77 l -18.3,35.29 c -0.57,1.1 -1.92,1.53 -3.01,0.96 -1.1,-0.57 -1.53,-1.92 -0.96,-3.01" /><path
         id="path376"
         style="fill:#ffffff;fill-opacity:1;fill-rule:nonzero;stroke:none"
         d="m 3065.33,4249.16 c 0,0 -6.13,-22.33 17.69,-26.38 18.08,-3.08 29.57,-4.7 39.72,-9.58 5.77,-2.77 12.43,-0.29 15.79,5.85 2.71,4.95 2.74,11.28 -0.06,16.12 -5.69,9.81 -17.8,24.97 -39.76,29.06 -28.22,5.26 -33.38,-15.07 -33.38,-15.07" /><path
         id="path378"
         style="fill:#ffffff;fill-opacity:1;fill-rule:nonzero;stroke:none"
         d="m 2993.83,4249.8 c 0,0 8.1,-22.2 -25.22,-26.89 -25.3,-3.55 -55.49,-14.48 -69.76,-19.63 -8.1,-2.92 -17.36,-0.61 -21.92,5.43 -3.68,4.89 -3.6,11.22 0.41,16.14 8.13,9.97 39.47,34.45 70.21,39.13 39.48,6.02 46.28,-14.18 46.28,-14.18" /><path
         id="path380"
         style="fill:#ffffff;fill-opacity:1;fill-rule:nonzero;stroke:none"
         d="m 2999.08,4135.34 c 0,0 -16.64,60.89 -96.5,15.31 0,0 33.3,-63.08 96.5,-15.31" /><g
         id="g382"><g
           clip-path="url(#clipPath388)"
           id="g384"><path
             id="path390"
             style="fill:#000000;fill-opacity:1;fill-rule:nonzero;stroke:none"
             d="m 2983.18,4143.61 c 2.1,-15.74 -8.58,-30.15 -23.85,-32.18 -15.26,-2.03 -29.34,9.09 -31.44,24.83 -2.08,15.74 8.59,30.15 23.86,32.18 15.27,2.03 29.34,-9.08 31.43,-24.83" /></g></g><path
         id="path392"
         style="fill:#000000;fill-opacity:1;fill-rule:nonzero;stroke:none"
         d="m 2901.5,4152.07 c 7.57,5.81 16.16,10.23 25.2,13.17 9.1,2.88 18.34,4.89 28.19,4.85 9.59,-0.22 19.48,-2.25 28.12,-7.44 8.55,-5.36 15.33,-13.49 17.87,-24.07 0.48,-1.96 -0.73,-3.94 -2.69,-4.4 -1.96,-0.48 -3.93,0.73 -4.41,2.69 l -0.02,0.12 -0.08,0.41 c -1.54,7.64 -6.99,15.34 -14.04,19.96 -7.19,4.69 -16.04,6.95 -24.95,7.48 -8.74,0.34 -18.02,-1.32 -26.67,-3.79 -8.72,-2.55 -17.01,-6.51 -24.37,-11.81 l -2.48,0.35 0.33,2.48" /><path
         id="path394"
         style="fill:#ffffff;fill-opacity:1;fill-rule:nonzero;stroke:none"
         d="m 3062.73,4134.26 c 0,0 23.11,60.91 67.81,19.65 0,0 -16.44,-59.75 -67.81,-19.65" /><g
         id="g396"><g
           clip-path="url(#clipPath402)"
           id="g398"><path
             id="path404"
             style="fill:#000000;fill-opacity:1;fill-rule:nonzero;stroke:none"
             d="m 3078.17,4146.36 c -2.2,-14.5 5.33,-27.66 16.81,-29.4 11.48,-1.75 22.57,8.6 24.77,23.1 2.19,14.5 -5.34,27.67 -16.82,29.41 -11.47,1.74 -22.56,-8.61 -24.76,-23.11" /></g></g><path
         id="path406"
         style="fill:#000000;fill-opacity:1;fill-rule:nonzero;stroke:none"
         d="m 3129.32,4153.06 c -3.43,4.69 -7.9,8.58 -13.12,10.74 -5.14,2.17 -11.26,2.56 -16.36,1.22 l -0.29,-0.07 c -3.71,-0.84 -7.42,-1.8 -10.74,-3.66 -3.35,-1.75 -6.5,-3.93 -9.22,-6.59 -5.49,-5.18 -9.89,-11.97 -12.52,-18.81 l -0.07,-0.19 c -0.61,-1.59 -2.4,-2.39 -3.98,-1.78 -1.59,0.61 -2.39,2.39 -1.78,3.99 l 0.03,0.07 c 1.73,4.17 3.82,7.69 6.28,11.19 2.45,3.44 5.3,6.62 8.49,9.44 3.15,2.85 6.79,5.19 10.64,7.01 3.82,1.95 8.04,2.91 12.2,3.67 l -0.29,-0.07 c 3.43,0.8 6.55,0.87 9.8,0.52 3.2,-0.36 6.37,-1.18 9.28,-2.56 5.87,-2.69 10.63,-7.25 14.1,-12.42 l -0.41,-2.07 -2.04,0.37" /><path
         id="path408"
         style="fill:#ffffff;fill-opacity:1;fill-rule:nonzero;stroke:none"
         d="m 3051.82,4052.23 c -2.44,6.36 -7.85,10.99 -14.44,12.65 -11.07,2.78 -30.76,3.22 -50.88,-18.24 -30.47,-32.5 -58.92,-30.47 -69.08,-23.36 0,0 54.86,-70.1 125.97,-11.17 0,0 16.16,19.92 8.43,40.12" /><path
         id="path410"
         style="fill:#ffffff;fill-opacity:1;fill-rule:nonzero;stroke:none"
         d="m 3043.28,4035.65 c -3.78,17.6 11.6,32.61 29.44,30.36 9.19,-1.16 20.19,-5.69 31.32,-17.57 27.84,-29.69 44.88,-27.83 54.15,-21.34 0,0 -41.16,-64.02 -106.11,-10.21 0,0 -6.48,8 -8.8,18.76" /><g
         id="g412"><g
           clip-path="url(#clipPath418)"
           id="g414"><path
             id="path420"
             style="fill:#f4e9e4;fill-opacity:1;fill-rule:nonzero;stroke:none"
             d="m 3135.29,4097.52 h 45.3828 v 86.582 H 3135.29 Z" /></g></g><path
         id="path422"
         style="fill:#e0a38d;fill-opacity:1;fill-rule:nonzero;stroke:none"
         d="m 3140.57,4087.54 -4.33,4.85 c 0.58,10.69 0.88,21.72 0.93,33.02 2.02,-0.62 4.09,-1.4 6.2,-2.37 12.42,-5.68 19.08,-14.8 21.32,-25.52 -5.72,-5.02 -13.51,-8.85 -24.12,-9.98" /><path
         id="path424"
         style="fill:#eec1a3;fill-opacity:1;fill-rule:nonzero;stroke:none"
         d="m 3136.24,4092.39 -27.85,31.25 c 2.89,1.5 5.46,3.44 7.73,5.61 v 0 c 8.74,8.37 12.99,20.14 14.11,23.64 l 1.13,-0.2 0.41,2.07 c -3.47,5.17 -8.23,9.73 -14.1,12.42 -2.91,1.38 -6.08,2.2 -9.28,2.56 -1.19,0.13 -2.37,0.2 -3.55,0.2 -1.95,0 -3.92,-0.2 -6,-0.66 -4.15,-0.76 -8.35,-1.71 -12.16,-3.66 -3.59,-1.69 -6.99,-3.84 -9.99,-6.43 l -21.02,23.58 c 0,0 3.21,14.79 39.7,14.79 8.19,0 18.04,-0.74 29.92,-2.56 l 10,-10.9 c 1.3,-20.27 1.95,-39.88 1.88,-58.69 -0.05,-11.3 -0.35,-22.33 -0.93,-33.02" /><path
         id="path426"
         style="fill:#ffffff;fill-opacity:1;fill-rule:nonzero;stroke:none"
         d="m 3116.12,4129.25 c 1.76,3.19 3.02,6.84 3.63,10.81 1.54,10.18 -1.71,19.71 -7.76,25.08 1.44,-0.33 2.86,-0.77 4.21,-1.34 5.22,-2.16 9.69,-6.05 13.12,-10.74 l 0.91,-0.17 c -1.12,-3.5 -5.37,-15.27 -14.11,-23.64 m -35.51,25.54 -0.42,0.48 c 0.37,0.34 0.75,0.68 1.13,1.01 -0.25,-0.49 -0.48,-0.98 -0.71,-1.49" /><path
         id="path428"
         style="fill:#383838;fill-opacity:1;fill-rule:nonzero;stroke:none"
         d="m 3108.39,4123.64 -27.78,31.15 c 0.23,0.51 0.46,1 0.71,1.49 2.3,1.96 4.83,3.62 7.49,5.01 3.32,1.86 7.03,2.82 10.74,3.66 l 0.29,0.07 c 1.97,0.52 4.08,0.77 6.24,0.77 1.97,0 3.97,-0.22 5.91,-0.65 6.05,-5.37 9.3,-14.9 7.76,-25.08 -0.61,-3.97 -1.87,-7.62 -3.63,-10.81 v 0 c -2.27,-2.17 -4.84,-4.11 -7.73,-5.61" /><path
         id="path430"
         style="fill:#383838;fill-opacity:1;fill-rule:nonzero;stroke:none"
         d="m 3131.36,4152.69 -1.13,0.2 -0.91,0.17 c -3.43,4.69 -7.9,8.58 -13.12,10.74 -1.35,0.57 -2.77,1.01 -4.21,1.34 -1.94,0.43 -3.94,0.65 -5.91,0.65 -2.16,0 -4.27,-0.25 -6.24,-0.77 l -0.29,-0.07 c -3.71,-0.84 -7.42,-1.8 -10.74,-3.66 -2.66,-1.39 -5.19,-3.05 -7.49,-5.01 -0.38,-0.33 -0.76,-0.67 -1.13,-1.01 l -3.5,3.92 c 3,2.59 6.4,4.74 9.99,6.43 3.81,1.95 8.01,2.9 12.16,3.66 2.08,0.46 4.05,0.66 6,0.66 1.18,0 2.36,-0.07 3.55,-0.2 3.2,-0.36 6.37,-1.18 9.28,-2.56 5.87,-2.69 10.63,-7.25 14.1,-12.42 l -0.41,-2.07" /><path
         id="path432"
         style="fill:#eec1a3;fill-opacity:1;fill-rule:nonzero;stroke:none"
         d="m 2968.57,4087.23 c -2.17,0 -4.44,0.1 -6.83,0.31 l -36.24,38.57 c 2.71,-1.77 5.67,-3.38 8.86,-4.71 v 0 c 5.74,-2.41 12.24,-3.94 19.48,-3.94 7.33,0 15.41,1.56 24.26,5.37 v 0 c 6.07,2.62 12.5,6.29 19.28,11.24 0.26,0.01 0.54,0.04 0.81,0.11 1.74,0.41 2.88,2 2.79,3.73 l 10.51,-11.01 c 0,0 0,-39.67 -42.92,-39.67 m -67.12,64.46 -34.12,36.31 c 0,0 16.99,7.11 67.66,7.11 3.65,0 7.47,-0.04 11.47,-0.11 l 26.58,-27.84 c -5.91,1.93 -12.09,2.79 -18.15,2.93 -0.09,0 -0.17,0 -0.25,0 -9.75,0 -18.91,-1.99 -27.94,-4.85 -9.04,-2.94 -17.63,-7.36 -25.2,-13.17 l -0.05,-0.38" /><path
         id="path434"
         style="fill:#ffffff;fill-opacity:1;fill-rule:nonzero;stroke:none"
         d="m 2934.36,4121.4 c -3.19,1.33 -6.15,2.94 -8.86,4.71 l -21.79,23.18 c 7.34,5.27 15.62,9.21 24.31,11.76 3.81,1.09 7.74,2.02 11.69,2.69 -8.39,-5.89 -13.29,-16.35 -11.82,-27.48 0.76,-5.69 3.09,-10.78 6.47,-14.86 m 43.74,1.43 c 4.09,5.76 6.1,13.11 5.08,20.78 -0.83,6.23 -3.53,11.73 -7.43,15.98 1.34,-0.67 2.64,-1.41 3.89,-2.23 7.05,-4.62 12.5,-12.32 14.04,-19.96 l 0.08,-0.41 0.02,-0.12 c 0.41,-1.67 1.9,-2.8 3.55,-2.8 0.01,0 0.03,0 0.05,0 -6.78,-4.95 -13.21,-8.62 -19.28,-11.24" /><path
         id="path436"
         style="fill:#383838;fill-opacity:1;fill-rule:nonzero;stroke:none"
         d="m 2953.84,4117.46 c -7.24,0 -13.74,1.53 -19.48,3.94 v 0 c -3.38,4.08 -5.71,9.17 -6.47,14.86 -1.47,11.13 3.43,21.59 11.82,27.48 4.24,0.72 8.5,1.14 12.67,1.14 0.77,0 1.54,-0.01 2.31,-0.04 7.36,-0.44 14.68,-2.05 21.06,-5.25 3.9,-4.25 6.6,-9.75 7.43,-15.98 1.02,-7.67 -0.99,-15.02 -5.08,-20.78 v 0 c -8.85,-3.81 -16.93,-5.37 -24.26,-5.37" /><path
         id="path438"
         style="fill:#383838;fill-opacity:1;fill-rule:nonzero;stroke:none"
         d="m 2997.33,4134.07 c -1.65,0 -3.14,1.13 -3.55,2.8 l -0.02,0.12 -0.08,0.41 c -1.54,7.64 -6.99,15.34 -14.04,19.96 -1.25,0.82 -2.55,1.56 -3.89,2.23 -6.38,3.2 -13.7,4.81 -21.06,5.25 -0.77,0.03 -1.54,0.04 -2.31,0.04 -4.17,0 -8.43,-0.42 -12.67,-1.14 -3.95,-0.67 -7.88,-1.6 -11.69,-2.69 -8.69,-2.55 -16.97,-6.49 -24.31,-11.76 l -2.26,2.4 0.05,0.38 c 7.57,5.81 16.16,10.23 25.2,13.17 9.03,2.86 18.19,4.85 27.94,4.85 0.08,0 0.16,0 0.25,0 6.06,-0.14 12.24,-1 18.15,-2.93 l 27.94,-29.25 c 0.09,-1.73 -1.05,-3.32 -2.79,-3.73 -0.27,-0.07 -0.55,-0.1 -0.81,-0.11 -0.02,0 -0.04,0 -0.05,0" /><path
         id="path440"
         style="fill:#000000;fill-opacity:1;fill-rule:nonzero;stroke:none"
         d="m 3018.86,4165.34 -5.03,0.41 c -1.27,-16.12 -3.19,-39.48 -13.08,-59.12 -4.19,-8.37 -12.73,-13.81 -22.18,-14.29 l 0.25,-5.04 0.02,5.05 -78.66,0.26 -0.01,-5.04 0.37,5.03 c -13.3,0.97 -24.16,11.08 -26.76,24.38 v 0 c -1.63,8.35 -2.89,18.29 -2.89,28.99 0,5.46 0.33,11.12 1.1,16.87 v 0 c 1.59,11.87 10.38,21.48 21.96,23.58 11.97,2.22 39.14,2.86 62.53,2.84 11.4,0 22,-0.13 29.73,-0.27 7.74,-0.14 12.59,-0.27 12.6,-0.27 l 0.15,5.04 -1.17,-4.91 c 9.56,-2.24 16.11,-11.21 16.12,-21.25 l -0.08,-1.85 v 0 l 5.03,-0.41 5.03,-0.4 0.11,2.66 c 0.01,14.36 -9.41,27.6 -23.88,31.07 l -1.02,0.13 c -0.03,0 -19.65,0.55 -42.62,0.55 -23.7,-0.02 -50.61,-0.53 -64.34,-3 -16.09,-2.95 -28.03,-16.16 -30.15,-32.18 v 0.01 c -0.84,-6.24 -1.19,-12.34 -1.19,-18.21 0,-11.49 1.35,-22.05 3.08,-30.92 v 0.01 c 3.4,-17.56 17.85,-31.17 35.91,-32.52 l 0.36,-0.02 78.66,-0.26 0.27,0.01 c 12.99,0.65 24.81,8.12 30.69,19.83 11.01,22 12.79,46.68 14.12,62.84 v 0 l -5.03,0.4" /><path
         id="path442"
         style="fill:#000000;fill-opacity:1;fill-rule:nonzero;stroke:none"
         d="m 2904.08,4197.81 -51.62,-2.76 c -3.02,-0.16 -5.36,-2.71 -5.25,-5.74 l 0.34,-9.52 c 0.06,-1.75 0.94,-3.36 2.37,-4.36 l 17.07,-11.92 c 0,0 9.21,31.14 37.09,34.3" /><path
         id="path444"
         style="fill:#000000;fill-opacity:1;fill-rule:nonzero;stroke:none"
         d="m 3055.8,4166.46 -5.03,-0.41 c 1.33,-15.94 1.91,-41.76 12.99,-63.95 5.89,-11.71 17.7,-19.18 30.69,-19.83 l 0.28,-0.01 51.84,0.26 0.35,0.02 c 18.06,1.35 32.52,14.96 35.92,32.52 1.73,8.86 3.07,19.43 3.07,30.93 0,5.85 -0.35,11.95 -1.18,18.18 -2.13,16.02 -14.06,29.23 -30.15,32.18 -17.77,3.21 -46.96,3.67 -64.56,3.69 -8.64,0 -14.4,-0.13 -14.43,-0.13 l -0.26,-0.01 c -8.45,-0.55 -15.13,-4.88 -19.06,-10.69 -3.99,-5.81 -5.63,-12.86 -5.64,-19.75 0,-1.14 0.05,-2.28 0.14,-3.41 v 0 l 5.03,0.41 5.02,0.4 -0.1,2.6 c -0.01,5.27 1.34,10.42 3.85,14.01 2.56,3.59 5.9,5.9 11.49,6.37 l -0.36,5.03 0.11,-5.05 c 0.01,0 5.67,0.13 14.21,0.13 17.29,0.01 46.55,-0.55 62.75,-3.53 11.58,-2.1 20.37,-11.71 21.96,-23.58 0.77,-5.75 1.09,-11.4 1.09,-16.85 0,-10.71 -1.26,-20.65 -2.88,-29.01 -2.6,-13.3 -13.47,-23.41 -26.77,-24.38 l 0.38,-5.03 -0.03,5.04 -51.84,-0.26 0.03,-5.05 0.25,5.04 c -9.45,0.48 -17.99,5.92 -22.19,14.29 -9.81,19.46 -10.68,43.9 -11.95,60.23 v 0 l -5.02,-0.4" /><path
         id="path446"
         style="fill:#000000;fill-opacity:1;fill-rule:nonzero;stroke:none"
         d="m 3142.64,4197.81 51.62,-2.76 c 3.02,-0.16 5.36,-2.71 5.25,-5.74 l -0.34,-9.52 c -0.07,-1.75 -0.94,-3.36 -2.37,-4.36 l -17.07,-11.92 c 0,0 -9.21,31.14 -37.09,34.3" /><path
         id="path448"
         style="fill:#000000;fill-opacity:1;fill-rule:nonzero;stroke:none"
         d="m 3059.3,4145.88 c -0.52,0.55 -7.05,6.86 -19.25,6.87 -6.9,0.01 -15.39,-2.06 -25.16,-7.88 -2.39,-1.42 -3.18,-4.52 -1.76,-6.92 1.43,-2.39 4.52,-3.18 6.92,-1.75 8.51,5.05 15.1,6.45 20,6.46 4.3,0 7.39,-1.1 9.41,-2.13 1.01,-0.51 1.74,-1.02 2.19,-1.36 l 0.45,-0.37 h 0.01 c 1.95,-1.99 5.15,-2.01 7.13,-0.05 1.99,1.95 2.01,5.14 0.06,7.13" /><path
         id="path450"
         style="fill:#000000;fill-opacity:1;fill-rule:nonzero;stroke:none"
         d="m 2804.44,4108.01 66.42,65.08 c 1.99,1.95 2.02,5.14 0.07,7.14 -1.95,1.98 -5.14,2.02 -7.13,0.07 l -66.42,-65.09 c -1.99,-1.94 -2.03,-5.14 -0.08,-7.13 1.95,-1.99 5.15,-2.02 7.14,-0.07" /><path
         id="path452"
         style="fill:#e9b089;fill-opacity:1;fill-rule:nonzero;stroke:none"
         d="m 2849.5,4024.36 c -4.83,21.09 -13.28,41.32 -25.91,59.57 -17.32,25.04 -41.9,48.03 -72.04,28.84 -51.33,-32.69 13.75,-114.78 70.63,-114.93 16.73,-0.05 30.36,13.23 27.32,26.52" /><path
         id="path454"
         style="fill:#000000;fill-opacity:1;fill-rule:nonzero;stroke:none"
         d="m 2766.99,4069.22 c 5.29,1.88 10.19,2.68 14.75,2.68 14.27,0.01 25.42,-7.9 33.11,-16.02 3.83,-4.05 6.76,-8.12 8.71,-11.17 0.98,-1.51 1.72,-2.78 2.21,-3.66 l 0.71,-1.34 c 0.55,-1.1 1.89,-1.56 3,-1.01 1.11,0.54 1.56,1.88 1.02,2.99 -0.07,0.12 -4.26,8.65 -12.4,17.27 -8.12,8.59 -20.34,17.4 -36.36,17.41 -5.08,0 -10.52,-0.89 -16.25,-2.94 -1.16,-0.41 -1.77,-1.7 -1.36,-2.86 0.42,-1.16 1.7,-1.77 2.86,-1.36" /><path
         id="path456"
         style="fill:#ffffff;fill-opacity:1;fill-rule:nonzero;stroke:none"
         d="m 3006.12,4359.02 c 0,0 -52.2,14.5 -72.07,-37.84 -27.52,-72.52 -110.71,-104.58 -182.33,-82.59 0,0 16.4,103.25 122.53,133.55 106.13,30.31 131.87,-13.12 131.87,-13.12" /><path
         id="path458"
         style="fill:#ffffff;fill-opacity:1;fill-rule:nonzero;stroke:none"
         d="m 3008.96,4382.89 c 0,0 -23.3,54.67 -120.87,43.65 -116.55,-13.16 -185.26,-111.96 -166.89,-170.21 14.14,-44.87 107.29,19.39 107.29,19.39 l 180.47,107.17" /><path
         id="path460"
         style="fill:#000000;fill-opacity:1;fill-rule:nonzero;stroke:none"
         d="m 4016.84,577.41 -96.5,-53.109 c -10.23,-5.641 -16.42,-18.531 -13.25,-30.75 2.51,-9.649 10.74,-17.031 32.22,-17.461 47.7,-0.938 309.95,34.23 309.95,34.23 v -27.129 l 98.65,-0.242 c 0,0 6.17,140 -23.66,158.289 L 4016.84,577.41" /><path
         id="path462"
         style="fill:#c67b5b;fill-opacity:1;fill-rule:nonzero;stroke:none"
         d="M 4197.27,664.059 4016.84,577.41 c 0,0 67.78,-47.711 141.45,-15.898 73.67,31.808 165.96,79.726 165.96,79.726 l -13.46,36.332 -113.52,-13.511" /><path
         id="path464"
         style="fill:#c67b5b;fill-opacity:1;fill-rule:nonzero;stroke:none"
         d="m 4310.79,677.57 13.46,401.96 -138.36,-8.47 V 622.352 l 124.9,55.218" /><path
         id="path466"
         style="fill:#000000;fill-opacity:1;fill-rule:nonzero;stroke:none"
         d="m 5216.75,577.41 96.49,-53.109 c 10.24,-5.641 16.43,-18.531 13.25,-30.75 -2.51,-9.649 -10.74,-17.031 -32.21,-17.461 -47.71,-0.938 -309.95,34.23 -309.95,34.23 v -28.359 l -97.27,1.23 c 0,0 -7.56,139.758 22.28,158.047 l 307.41,-63.828" /><path
         id="path468"
         style="fill:#c67b5b;fill-opacity:1;fill-rule:nonzero;stroke:none"
         d="m 5036.32,664.059 180.43,-86.649 c 0,0 -67.79,-47.711 -141.46,-15.898 -73.67,31.808 -165.95,79.726 -165.95,79.726 l 13.45,36.332 113.53,-13.511" /><path
         id="path470"
         style="fill:#c67b5b;fill-opacity:1;fill-rule:nonzero;stroke:none"
         d="m 4922.79,677.57 -101.19,401.96 138.37,-8.47 98.87,-457.88 -136.05,64.39" /><path
         id="path472"
         style="fill:#294286;fill-opacity:1;fill-rule:nonzero;stroke:none"
         d="m 4271.48,3018.2 c 0,0 -190.57,-310.48 -185.84,-584.56 4.75,-274.07 71.98,-1634.331 71.98,-1634.331 h 228.29 l 45.94,1719.051 27.5,1.68 356.28,-1721.411 214.38,20.601 -225.91,1598.52 c -15.46,98.84 -41.95,195.73 -80.44,288.08 -32.89,78.93 -72.41,211.86 -128.79,281.5 l -323.39,30.87" /><path
         id="path474"
         style="fill:#000000;fill-opacity:1;fill-rule:nonzero;stroke:none"
         d="m 4433.22,2515.01 127.59,7.72 c 1.26,0.07 2.22,1.16 2.15,2.42 -0.08,1.26 -1.16,2.22 -2.42,2.14 l -127.59,-7.71 c -1.26,-0.08 -2.22,-1.16 -2.15,-2.42 0.08,-1.26 1.16,-2.22 2.42,-2.15" /><path
         id="path476"
         style="fill:#c67b5b;fill-opacity:1;fill-rule:nonzero;stroke:none"
         d="m 3951.59,3332.5 -169.16,-252.89 c -59.15,-92.58 82.27,-187.99 146.22,-99.23 l 288.02,384.41 -265.08,-32.29" /><path
         id="path478"
         style="fill:#ca98be;fill-opacity:1;fill-rule:nonzero;stroke:none"
         d="m 4197.71,3626.98 c -106.81,35.14 -269.55,-240.38 -333.83,-339.82 l 257.85,-169.71 c 47.81,78.53 366.32,395.55 75.98,509.53" /><path
         id="path480"
         style="fill:#ca98be;fill-opacity:1;fill-rule:nonzero;stroke:none"
         d="m 4622.63,3630.06 c 0,0 184.79,-12.08 192.22,-283.84 l -126.83,-29.25 -65.39,313.09" /><path
         id="path482"
         style="fill:#ca98be;fill-opacity:1;fill-rule:nonzero;stroke:none"
         d="m 4170.93,3631.19 c 206.54,37.97 320.81,37.96 475.88,-6.03 175.51,-49.78 26.89,-523.71 -14.31,-703.47 h -411.22 l -138.42,534.58 c 18.94,42.78 23.46,170.98 88.07,174.92" /><path
         id="path484"
         style="fill:#000000;fill-opacity:1;fill-rule:nonzero;stroke:none"
         d="m 4165.1,3147.49 -49.16,207.85 c -0.28,1.19 -1.48,1.93 -2.67,1.65 -1.2,-0.29 -1.93,-1.48 -1.65,-2.68 l 49.16,-207.84 c 0.28,-1.19 1.48,-1.93 2.67,-1.65 1.19,0.28 1.93,1.48 1.65,2.67" /><path
         id="path486"
         style="fill:#000000;fill-opacity:1;fill-rule:nonzero;stroke:none"
         d="m 4695.21,3217.77 29.61,207.84 c 0.17,1.21 -0.68,2.34 -1.89,2.51 -1.21,0.18 -2.34,-0.67 -2.51,-1.88 l -29.61,-207.84 c -0.17,-1.22 0.67,-2.34 1.88,-2.51 1.22,-0.18 2.34,0.67 2.52,1.88" /><path
         id="path488"
         style="fill:#ffffff;fill-opacity:1;fill-rule:nonzero;stroke:none"
         d="m 4475.02,3572.12 -128.48,79.37 6.77,44.03 h -21.21 c -8.77,0 -17.18,-3.48 -23.38,-9.68 l -38.53,-38.44 88.51,-132.64 c 9.26,-13.88 28.53,-16.62 41.29,-5.86 l 75.03,63.22" /><path
         id="path490"
         style="fill:#ffffff;fill-opacity:1;fill-rule:nonzero;stroke:none"
         d="m 4513.57,3695.52 h 15.97 c 11.05,0 21.37,-5.52 27.51,-14.69 l 26.62,-39.78 -11.6,-114.95 c -1.17,-11.69 -14.75,-17.53 -24.05,-10.35 l -73,56.37 41.11,68.77 -2.56,54.63" /><path
         id="path492"
         style="fill:#ffffff;fill-opacity:1;fill-rule:nonzero;stroke:none"
         d="m 4487.74,3517.34 c 0,-7.03 -5.7,-12.72 -12.72,-12.72 -7.03,0 -12.73,5.69 -12.73,12.72 0,7.03 5.7,12.72 12.73,12.72 7.02,0 12.72,-5.69 12.72,-12.72" /><path
         id="path494"
         style="fill:#ffffff;fill-opacity:1;fill-rule:nonzero;stroke:none"
         d="m 4490.58,3466.64 c 0,-7.03 -5.7,-12.72 -12.73,-12.72 -7.02,0 -12.72,5.69 -12.72,12.72 0,7.03 5.7,12.73 12.72,12.73 7.03,0 12.73,-5.7 12.73,-12.73" /><path
         id="path496"
         style="fill:#c67b5b;fill-opacity:1;fill-rule:nonzero;stroke:none"
         d="m 4362.8,3223.61 c 0,0 71.75,127.06 259.83,51.95 l -72.91,-155.07 -164.48,5.63 -22.44,97.49" /><path
         id="path498"
         style="fill:#c67b5b;fill-opacity:1;fill-rule:nonzero;stroke:none"
         d="m 4362.8,3223.61 -505.32,-86.66 29.55,-188.45 498.21,177.62 -22.44,97.49" /><path
         id="path500"
         style="fill:#000000;fill-opacity:1;fill-rule:nonzero;stroke:none"
         d="m 4039.14,3170.35 -123.51,-21.18 c -1.21,-0.21 -2.02,-1.35 -1.81,-2.56 0.2,-1.21 1.35,-2.02 2.56,-1.82 l 123.51,21.18 c 1.21,0.21 2.02,1.36 1.81,2.57 -0.21,1.21 -1.35,2.02 -2.56,1.81" /><path
         id="path502"
         style="fill:#ffffff;fill-opacity:1;fill-rule:nonzero;stroke:none"
         d="m 4398.65,2819.54 -34.26,38.07 208.09,488.61 c 0,0 373.4,62.85 526.11,11.07 l -699.94,-537.75" /><path
         id="path504"
         style="fill:#000000;fill-opacity:1;fill-rule:nonzero;stroke:none"
         d="m 5098.59,3357.29 -81.17,-11.07 -241.67,-474.13 c 0,0 70.1,-1.84 101.47,59.04 l 221.37,426.16" /><path
         id="path506"
         style="fill:#212e38;fill-opacity:1;fill-rule:nonzero;stroke:none"
         d="m 5017.42,3346.22 -415.75,-36.91 -203.02,-489.77 377.1,52.55 241.67,474.13" /><path
         id="path508"
         style="fill:#ffffff;fill-opacity:1;fill-rule:nonzero;stroke:none"
         d="m 4877.57,3231.16 -232.15,-20.61 -22.79,-55.64 226.09,21.41 28.85,54.84" /><path
         id="path510"
         style="fill:#ffffff;fill-opacity:1;fill-rule:nonzero;stroke:none"
         d="m 5098.59,3357.29 -48.92,225.14 h -47.93 l -92.96,-213.51 189.81,-11.63" /><path
         id="path512"
         style="fill:#c67b5b;fill-opacity:1;fill-rule:nonzero;stroke:none"
         d="m 4923.16,3019.59 c 0,0 55.33,-13.51 102.18,57.97 46.86,71.48 1.46,109.41 1.46,109.41 l -117.35,82.58 c -4.9,3.44 -11.55,2.93 -15.86,-1.24 -5.08,-4.92 -5.07,-13.07 0.02,-17.97 l 69.65,-66.91 -105.25,69.27 c -8.02,5.27 -18.83,2.81 -23.76,-5.43 -4.38,-7.31 -2.63,-16.72 4.07,-21.97 l 97.56,-76.37 -87.66,45.43 c -6.98,3.62 -15.58,0.81 -19.08,-6.24 -3.06,-6.15 -1.23,-13.6 4.32,-17.64 l 89.25,-64.99 -76.15,36.34 c -7.29,3.49 -16.04,0.59 -19.82,-6.55 v -0.01 c -3.51,-6.61 -1.62,-14.8 4.43,-19.22 l 102.68,-75.06 -10.69,-21.4" /><path
         id="path514"
         style="fill:#a4563a;fill-opacity:1;fill-rule:nonzero;stroke:none"
         d="m 4564.65,3948.95 c 1.79,20.35 7.06,40.36 16.5,59.06 12.95,25.66 32.95,50.34 63.63,36.3 52.23,-23.9 2.03,-109.1 -51.14,-116.62 -15.64,-2.21 -30.11,8.44 -28.99,21.26" /><path
         id="path516"
         style="fill:#ffffff;fill-opacity:1;fill-rule:nonzero;stroke:none"
         d="m 4650.03,3942.85 c 0.59,-7.93 -5.37,-14.83 -13.29,-15.41 -7.93,-0.59 -14.83,5.36 -15.41,13.29 -0.59,7.92 5.36,14.82 13.29,15.41 7.92,0.58 14.82,-5.37 15.41,-13.29" /><path
         id="path518"
         style="fill:#000000;fill-opacity:1;fill-rule:nonzero;stroke:none"
         d="m 4377.47,3907.79 c 0,-72.82 -59.03,-131.85 -131.84,-131.85 -72.82,0 -131.85,59.03 -131.85,131.85 0,72.81 59.03,131.84 131.85,131.84 72.81,0 131.84,-59.03 131.84,-131.84" /><path
         id="path520"
         style="fill:#000000;fill-opacity:1;fill-rule:nonzero;stroke:none"
         d="m 4278,4249.39 c 0,0 -38.96,21.05 -79.79,-37.46 -40.83,-58.53 -34.52,-181.09 48.73,-203.39 l 31.06,240.85" /><path
         id="path522"
         style="fill:#000000;fill-opacity:1;fill-rule:nonzero;stroke:none"
         d="m 4278,4249.39 c 0,0 22.21,114.43 194.3,90.93 172.09,-23.49 285.83,-97.1 166.31,-259.98 L 4278,4249.39" /><path
         id="path524"
         style="fill:#000000;fill-opacity:1;fill-rule:nonzero;stroke:none"
         d="m 4635.65,4111.38 c 1.58,-110.96 -81.19,-201.88 -200.67,-203.57 -119.48,-1.69 -217.62,86.88 -219.19,197.84 -1.57,110.96 94.01,202.28 213.49,203.97 119.48,1.69 204.8,-87.28 206.37,-198.24" /><path
         id="path526"
         style="fill:#c67b5b;fill-opacity:1;fill-rule:nonzero;stroke:none"
         d="m 4392.11,3947.68 -45.57,-296.19 128.48,-79.37 41.11,68.77 -12.86,274.04 -111.16,32.75" /><path
         id="path528"
         style="fill:#a4563a;fill-opacity:1;fill-rule:nonzero;stroke:none"
         d="m 4511.27,3744.2 -111.58,105.79 104.2,44.23 z" /><path
         id="path530"
         style="fill:#c67b5b;fill-opacity:1;fill-rule:nonzero;stroke:none"
         d="m 4395.83,4263.79 c 36.49,10.52 75.34,13.33 112.62,6.03 50.49,-9.89 115.48,-40.63 124.85,-132.56 15.64,-153.22 -1.28,-268.28 -76.55,-304.07 -57.79,-27.47 -100.28,-17.78 -167.78,20.28 -25.11,14.16 -49.79,66.54 -56.95,95.82 l -29.9,81.64 c 0,0 -80.67,182.54 93.71,232.86" /><path
         id="path532"
         style="fill:#000000;fill-opacity:1;fill-rule:nonzero;stroke:none"
         d="m 4545.26,3992.46 20.08,-37.11 -16.68,-13.52 c -0.95,-0.77 -1.1,-2.17 -0.33,-3.13 0.77,-0.95 2.17,-1.1 3.13,-0.32 l 18.11,14.67 c 0.83,0.68 1.06,1.85 0.56,2.79 l -20.96,38.73 c -0.58,1.08 -1.93,1.48 -3.01,0.9 -1.08,-0.58 -1.48,-1.93 -0.9,-3.01" /><path
         id="path534"
         style="fill:#000000;fill-opacity:1;fill-rule:nonzero;stroke:none"
         d="m 4567.26,4126.72 c 0,0 -6.09,-15.14 17.57,-17.89 17.96,-2.09 29.37,-3.19 39.46,-6.49 5.72,-1.89 12.34,-0.2 15.67,3.96 2.7,3.35 2.73,7.65 -0.06,10.93 -5.65,6.65 -17.67,16.93 -39.49,19.71 -28.02,3.56 -33.15,-10.22 -33.15,-10.22" /><path
         id="path536"
         style="fill:#000000;fill-opacity:1;fill-rule:nonzero;stroke:none"
         d="m 4496.25,4127.15 c 0,0 8.05,-15.05 -25.06,-18.23 -25.13,-2.41 -55.12,-9.82 -69.29,-13.31 -8.04,-1.98 -17.23,-0.42 -21.76,3.68 -3.67,3.31 -3.59,7.61 0.4,10.94 8.08,6.76 39.21,23.36 69.73,26.54 39.22,4.07 45.98,-9.62 45.98,-9.62" /><path
         id="path538"
         style="fill:#ffffff;fill-opacity:1;fill-rule:nonzero;stroke:none"
         d="m 4504.52,4015.02 c 0,0 -16.52,60.48 -95.85,15.21 0,0 33.45,-54.85 95.85,-15.21" /><g
         id="g540"><g
           clip-path="url(#clipPath546)"
           id="g542"><path
             id="path548"
             style="fill:#000000;fill-opacity:1;fill-rule:nonzero;stroke:none"
             d="m 4485.66,4025.67 c 1.88,-14.1 -7.68,-27 -21.35,-28.82 -13.68,-1.82 -26.28,8.13 -28.16,22.23 -1.87,14.1 7.69,27 21.36,28.82 13.67,1.82 26.28,-8.13 28.15,-22.23" /></g></g><path
         id="path550"
         style="fill:#000000;fill-opacity:1;fill-rule:nonzero;stroke:none"
         d="m 4407.61,4031.64 c 7.51,5.77 16.05,10.16 25.03,13.08 9.03,2.86 18.21,4.85 27.99,4.82 9.53,-0.22 19.35,-2.24 27.93,-7.39 8.5,-5.33 15.23,-13.4 17.76,-23.91 0.47,-1.95 -0.73,-3.9 -2.68,-4.37 -1.95,-0.47 -3.9,0.72 -4.37,2.67 l -0.03,0.12 -0.08,0.41 c -1.52,7.59 -6.94,15.24 -13.95,19.82 -7.13,4.66 -15.92,6.91 -24.77,7.43 -8.69,0.34 -17.9,-1.3 -26.49,-3.76 -8.67,-2.53 -16.9,-6.46 -24.21,-11.73 l -2.46,0.35 0.33,2.46" /><path
         id="path552"
         style="fill:#ffffff;fill-opacity:1;fill-rule:nonzero;stroke:none"
         d="m 4564.68,4016.35 c 0,0 22.95,60.5 67.35,19.52 0,0 -24.76,-57.4 -67.35,-19.52" /><g
         id="g554"><g
           clip-path="url(#clipPath560)"
           id="g556"><path
             id="path562"
             style="fill:#000000;fill-opacity:1;fill-rule:nonzero;stroke:none"
             d="m 4581.13,4029.57 c -1.94,-12.82 4.72,-24.47 14.88,-26.01 10.15,-1.54 19.97,7.61 21.91,20.44 1.94,12.83 -4.72,24.48 -14.87,26.02 -10.16,1.54 -19.97,-7.61 -21.92,-20.45" /></g></g><path
         id="path564"
         style="fill:#000000;fill-opacity:1;fill-rule:nonzero;stroke:none"
         d="m 4630.81,4035.02 c -3.41,4.67 -7.84,8.53 -13.03,10.67 -5.1,2.16 -11.18,2.55 -16.24,1.21 l -0.29,-0.06 c -3.68,-0.84 -7.37,-1.79 -10.66,-3.65 -3.33,-1.73 -6.46,-3.89 -9.16,-6.54 -5.45,-5.13 -9.84,-11.88 -12.44,-18.68 l -0.07,-0.19 c -0.61,-1.58 -2.38,-2.37 -3.96,-1.76 -1.58,0.6 -2.37,2.37 -1.77,3.95 l 0.04,0.08 c 1.71,4.14 3.79,7.64 6.23,11.11 2.44,3.42 5.27,6.58 8.43,9.37 3.14,2.83 6.75,5.16 10.58,6.97 3.79,1.94 7.98,2.89 12.11,3.65 l -0.29,-0.07 c 3.41,0.8 6.51,0.86 9.74,0.52 3.17,-0.37 6.33,-1.17 9.22,-2.54 5.82,-2.68 10.55,-7.21 14,-12.34 l -0.41,-2.06 -2.03,0.36" /><path
         id="path566"
         style="fill:#be5640;fill-opacity:1;fill-rule:nonzero;stroke:none"
         d="m 4565.36,3906.81 c 0,0 -6.32,-23.48 -32.9,-22.05 -36.47,1.96 -50.74,30.88 -50.74,30.88 l 83.64,-8.83" /><path
         id="path568"
         style="fill:#be5640;fill-opacity:1;fill-rule:nonzero;stroke:none"
         d="m 4485.08,3915.64 c 0,0 74.22,12.9 78.93,-7.94 0,0 -51.7,-7.84 -78.93,7.94" /><path
         id="path570"
         style="fill:#000000;fill-opacity:1;fill-rule:nonzero;stroke:none"
         d="m 4568.4,3911.73 -0.52,-0.23 c -2.58,-1.12 -14.58,-5.83 -32.37,-5.83 -14.99,0 -34.11,3.33 -55.34,15.02 -1.07,0.59 -2.42,0.2 -3.01,-0.88 -0.6,-1.07 -0.2,-2.42 0.87,-3.02 21.9,-12.06 41.83,-15.57 57.48,-15.56 21.24,0 34.61,6.4 34.82,6.5 1.1,0.53 1.57,1.86 1.04,2.96 -0.53,1.11 -1.86,1.58 -2.97,1.04" /><path
         id="path572"
         style="fill:#000000;fill-opacity:1;fill-rule:nonzero;stroke:none"
         d="m 4330.19,3986.24 c 0,0 82.19,177.42 -30.67,234.19 0,0 -36.16,35.8 -54.49,-60.26 -29.4,-154.11 85.16,-173.93 85.16,-173.93" /><path
         id="path574"
         style="fill:#c67b5b;fill-opacity:1;fill-rule:nonzero;stroke:none"
         d="m 4352.89,3946.3 c -4.8,20.96 -13.19,41.04 -25.73,59.17 -17.21,24.87 -41.62,47.71 -71.55,28.65 -50.99,-32.47 13.65,-114.01 70.14,-114.16 16.61,-0.04 30.16,13.15 27.14,26.34" /><path
         id="path576"
         style="fill:#000000;fill-opacity:1;fill-rule:nonzero;stroke:none"
         d="m 4270.93,3990.86 c 5.25,1.87 10.13,2.66 14.65,2.66 14.18,0.01 25.26,-7.84 32.89,-15.91 3.8,-4.02 6.71,-8.06 8.66,-11.09 0.97,-1.51 1.7,-2.77 2.19,-3.64 l 0.71,-1.33 c 0.54,-1.1 1.87,-1.55 2.97,-1.01 1.1,0.54 1.56,1.87 1.01,2.98 -0.06,0.12 -4.23,8.58 -12.31,17.14 -8.07,8.54 -20.21,17.29 -36.12,17.3 -5.05,0 -10.44,-0.89 -16.14,-2.92 -1.16,-0.41 -1.76,-1.68 -1.35,-2.84 0.41,-1.15 1.69,-1.76 2.84,-1.34" /><path
         id="path578"
         style="fill:#ffffff;fill-opacity:1;fill-rule:nonzero;stroke:none"
         d="m 4332.02,3925.63 c 0,-7.94 -6.44,-14.38 -14.38,-14.38 -7.95,0 -14.4,6.44 -14.4,14.38 0,7.95 6.45,14.39 14.4,14.39 7.94,0 14.38,-6.44 14.38,-14.39" /><path
         id="path580"
         style="fill:#000000;fill-opacity:1;fill-rule:nonzero;stroke:none"
         d="m 4312.57,4212.73 c 0,0 99.63,-41.15 184.54,0 84.91,41.16 134.92,-36.85 134.92,-36.85 0,0 -30.29,124.02 -170.98,114.33 -140.69,-9.69 -148.48,-77.48 -148.48,-77.48" /><path
         id="path582"
         style="fill:#000000;fill-opacity:1;fill-rule:nonzero;stroke:none"
         d="M 385.547,471.629 H 6978.17 c 1.84,0 3.33,1.492 3.33,3.32 0,1.84 -1.49,3.332 -3.33,3.332 H 385.547 c -1.836,0 -3.324,-1.492 -3.324,-3.332 0,-1.828 1.488,-3.32 3.324,-3.32" /></g></g></svg>