<svg width="650" height="384" viewBox="0 0 650 384" fill="none" xmlns="http://www.w3.org/2000/svg">
<path d="M454.61 0H117.296C95.8631 0 78.4879 17.3752 78.4879 38.8086V266.449C78.4879 287.882 95.8631 305.258 117.296 305.258H454.61C476.044 305.258 493.419 287.882 493.419 266.449V38.8086C493.419 17.3752 476.044 0 454.61 0Z" fill="#7A6BEE"/>
<path d="M449.896 7.0365H121.52C101.158 7.0365 84.651 23.5435 84.651 43.9058V260.171C84.651 280.533 101.158 297.04 121.52 297.04H449.896C470.258 297.04 486.765 280.533 486.765 260.171V43.9058C486.765 23.5435 470.258 7.0365 449.896 7.0365Z" fill="white"/>
<path d="M449.741 24.0803H120.401C110.394 24.0803 102.282 32.1923 102.282 42.1991V233.703C102.282 243.71 110.394 251.822 120.401 251.822H449.741C459.748 251.822 467.86 243.71 467.86 233.703V42.1991C467.86 32.1923 459.748 24.0803 449.741 24.0803Z" fill="#7A6BEE" stroke="white" stroke-width="0.913945"/>
<path d="M285.749 265.239C288.155 265.241 290.463 266.191 292.172 267.884C293.882 269.576 294.855 271.875 294.881 274.28C294.907 276.685 293.984 279.004 292.311 280.733C290.639 282.462 288.352 283.462 285.947 283.516C283.542 283.57 281.213 282.673 279.465 281.021C277.716 279.369 276.69 277.094 276.608 274.689C276.526 272.285 277.396 269.946 279.028 268.178C280.66 266.411 282.923 265.358 285.326 265.249" fill="#7A6BEE"/>
<path d="M254.778 312.108C250.646 312.108 247.295 315.459 247.295 319.591V352.264H219.477C214.465 352.264 210.452 356.334 210.452 361.347V365.174C210.452 370.186 214.465 374.199 219.477 374.199H351.542C356.554 374.199 360.567 370.186 360.567 365.174V361.347C360.567 356.334 356.554 352.264 351.542 352.264H324.067V319.591C324.067 315.459 320.773 312.108 316.641 312.108H254.778Z" fill="white"/>
<path d="M625.504 113.868H472.426C459.128 113.868 448.349 124.647 448.349 137.945V359.772C448.349 373.07 459.128 383.849 472.426 383.849H625.504C638.801 383.849 649.581 373.07 649.581 359.772V137.945C649.581 124.647 638.801 113.868 625.504 113.868Z" fill="#7A6BEE"/>
<path d="M618.045 124.202H479.921C467.587 124.202 457.588 134.201 457.588 146.535V352.291C457.588 364.625 467.587 374.623 479.921 374.623H618.045C630.379 374.623 640.377 364.625 640.377 352.291V146.535C640.377 134.201 630.379 124.202 618.045 124.202Z" fill="white"/>
<path d="M623.373 142.976H473.667V341.304H623.373V142.976Z" fill="#7A6BEE" stroke="white" stroke-width="0.912768"/>
<path d="M548.484 351.004C550.412 351 552.265 351.756 553.639 353.109C555.013 354.461 555.799 356.302 555.825 358.23C555.852 360.158 555.117 362.019 553.78 363.409C552.443 364.799 550.612 365.605 548.684 365.654C546.757 365.703 544.887 364.989 543.482 363.669C542.077 362.348 541.249 360.527 541.178 358.6C541.107 356.673 541.798 354.795 543.103 353.375C544.407 351.954 546.218 351.105 548.145 351.012" fill="#7A6BEE"/>
<path d="M519.238 351.004C521.166 351 523.018 351.757 524.393 353.11C525.767 354.462 526.552 356.303 526.579 358.231C526.605 360.159 525.87 362.02 524.533 363.41C523.197 364.799 521.366 365.606 519.438 365.655C517.51 365.704 515.641 364.99 514.236 363.67C512.831 362.349 512.003 360.528 511.932 358.601C511.861 356.674 512.552 354.796 513.856 353.376C515.161 351.955 516.972 351.106 518.898 351.013" fill="#7A6BEE"/>
<path d="M576.769 351.004C578.697 351 580.549 351.757 581.924 353.11C583.298 354.462 584.083 356.303 584.11 358.231C584.136 360.159 583.401 362.02 582.064 363.41C580.728 364.799 578.897 365.606 576.969 365.655C575.041 365.704 573.172 364.99 571.767 363.67C570.362 362.349 569.534 360.528 569.463 358.601C569.392 356.674 570.083 354.796 571.387 353.376C572.692 351.955 574.503 351.106 576.429 351.013" fill="#7A6BEE"/>
<path d="M95.8957 194.515H29.7087C13.301 194.515 0 207.816 0 224.224V352.99C0 369.398 13.301 382.699 29.7087 382.699H95.8957C112.303 382.699 125.604 369.398 125.604 352.99V224.224C125.604 207.816 112.303 194.515 95.8957 194.515Z" fill="#7A6BEE"/>
<path d="M90.2983 202.265H34.8763C19.8952 202.265 7.75058 214.41 7.75058 229.391V346.961C7.75058 361.942 19.8952 374.087 34.8763 374.087H90.2983C105.279 374.087 117.424 361.942 117.424 346.961V229.391C117.424 214.41 105.279 202.265 90.2983 202.265Z" fill="white"/>
<path d="M106.47 226.201H18.7318V350.498H106.47V226.201Z" fill="#7A6BEE" stroke="white" stroke-width="0.913945"/>
<path d="M80.8136 213.34H44.2558V216.995H80.8136V213.34Z" fill="#7A6BEE" stroke="white" stroke-width="0.365578" stroke-linecap="round" stroke-linejoin="round"/>
<path d="M62.6011 354.8C64.5256 354.8 66.3722 355.56 67.7405 356.913C69.1087 358.266 69.8882 360.105 69.9099 362.029C69.9316 363.953 69.1937 365.809 67.8563 367.192C66.5189 368.576 64.6898 369.377 62.7659 369.421C60.8419 369.465 58.9782 368.749 57.5789 367.427C56.1797 366.106 55.3578 364.286 55.2916 362.363C55.2253 360.44 55.92 358.568 57.225 357.153C58.53 355.739 60.34 354.896 62.2624 354.808" fill="#7A6BEE"/>
<path d="M194.343 91.8156C194.343 92.6476 194.039 93.3516 193.431 93.9276C192.823 94.4716 192.119 94.7436 191.319 94.7436C190.423 94.7436 189.703 94.4716 189.159 93.9276C188.615 93.3516 188.343 92.6476 188.343 91.8156V64.0716C188.343 63.2396 188.631 62.5516 189.207 62.0076C189.783 61.4316 190.519 61.1436 191.415 61.1436C192.183 61.1436 192.855 61.4316 193.431 62.0076C194.039 62.5516 194.343 63.2396 194.343 64.0716V91.8156ZM227.05 61.1436C227.818 61.1436 228.442 61.3996 228.922 61.9116C229.402 62.4236 229.642 63.0636 229.642 63.8316V91.8156C229.642 92.6476 229.354 93.3516 228.778 93.9276C228.234 94.4716 227.546 94.7436 226.714 94.7436C226.298 94.7436 225.866 94.6796 225.418 94.5516C225.002 94.3916 224.682 94.1836 224.458 93.9276L205.594 69.9756L206.842 69.2076V92.0556C206.842 92.8236 206.586 93.4636 206.074 93.9756C205.594 94.4876 204.954 94.7436 204.154 94.7436C203.386 94.7436 202.762 94.4876 202.282 93.9756C201.802 93.4636 201.562 92.8236 201.562 92.0556V64.0716C201.562 63.2396 201.834 62.5516 202.378 62.0076C202.954 61.4316 203.658 61.1436 204.49 61.1436C204.938 61.1436 205.402 61.2396 205.882 61.4316C206.362 61.5916 206.714 61.8476 206.938 62.1996L225.226 85.5276L224.41 86.1036V63.8316C224.41 63.0636 224.65 62.4236 225.13 61.9116C225.61 61.3996 226.25 61.1436 227.05 61.1436ZM259.995 94.7436C259.099 94.7436 258.379 94.3756 257.835 93.6396L246.747 79.0476L251.115 74.5836L262.587 89.7516C263.035 90.3596 263.259 91.0156 263.259 91.7196C263.259 92.6156 262.923 93.3516 262.251 93.9276C261.579 94.4716 260.827 94.7436 259.995 94.7436ZM260.571 60.9036C261.339 60.9036 261.963 61.2236 262.443 61.8636C262.955 62.4716 263.211 63.0956 263.211 63.7356C263.211 64.4076 262.923 65.0316 262.347 65.6076L242.235 84.8556L241.995 77.9916L258.219 62.0076C258.955 61.2716 259.739 60.9036 260.571 60.9036ZM239.835 94.7436C238.939 94.7436 238.219 94.4716 237.675 93.9276C237.131 93.3516 236.859 92.6476 236.859 91.8156V64.0716C236.859 63.2396 237.147 62.5516 237.723 62.0076C238.299 61.4316 239.035 61.1436 239.931 61.1436C240.827 61.1436 241.531 61.4316 242.043 62.0076C242.587 62.5516 242.859 63.2396 242.859 64.0716V91.8156C242.859 92.6476 242.587 93.3516 242.043 93.9276C241.499 94.4716 240.763 94.7436 239.835 94.7436Z" fill="#B4ADEA"/>
<path d="M286.84 89.1276C287.672 89.1276 288.36 89.3996 288.904 89.9436C289.48 90.4556 289.768 91.1276 289.768 91.9596C289.768 92.7596 289.48 93.4316 288.904 93.9756C288.36 94.4876 287.672 94.7436 286.84 94.7436H271.24C270.408 94.7436 269.704 94.4716 269.128 93.9276C268.584 93.3516 268.312 92.6476 268.312 91.8156V64.0716C268.312 63.2396 268.6 62.5516 269.176 62.0076C269.752 61.4316 270.488 61.1436 271.384 61.1436C272.152 61.1436 272.824 61.4316 273.4 62.0076C274.008 62.5516 274.312 63.2396 274.312 64.0716V89.9436L273.256 89.1276H286.84Z" fill="url(#paint0_linear)"/>
<path d="M298.193 61.1436H314.273C315.105 61.1436 315.793 61.4156 316.337 61.9596C316.913 62.4716 317.201 63.1436 317.201 63.9756C317.201 64.7756 316.913 65.4316 316.337 65.9436C315.793 66.4236 315.105 66.6636 314.273 66.6636H300.833L301.265 65.8476V75.2076L300.881 74.8236H312.113C312.945 74.8236 313.633 75.0956 314.177 75.6396C314.753 76.1516 315.041 76.8236 315.041 77.6556C315.041 78.4556 314.753 79.1116 314.177 79.6236C313.633 80.1036 312.945 80.3436 312.113 80.3436H301.025L301.265 79.9596V89.6556L300.881 89.2236H314.273C315.105 89.2236 315.793 89.5116 316.337 90.0876C316.913 90.6316 317.201 91.2716 317.201 92.0076C317.201 92.8076 316.913 93.4636 316.337 93.9756C315.793 94.4876 315.105 94.7436 314.273 94.7436H298.193C297.361 94.7436 296.657 94.4716 296.081 93.9276C295.537 93.3516 295.265 92.6476 295.265 91.8156V64.0716C295.265 63.2396 295.537 62.5516 296.081 62.0076C296.657 61.4316 297.361 61.1436 298.193 61.1436ZM333.534 95.2236C331.294 95.2236 329.278 94.9516 327.486 94.4076C325.694 93.8316 323.982 92.8396 322.35 91.4316C321.934 91.0796 321.614 90.6796 321.39 90.2316C321.166 89.7836 321.054 89.3356 321.054 88.8876C321.054 88.1516 321.31 87.5116 321.822 86.9676C322.366 86.3916 323.038 86.1036 323.838 86.1036C324.446 86.1036 324.99 86.2956 325.47 86.6796C326.686 87.6716 327.886 88.4236 329.07 88.9356C330.286 89.4476 331.774 89.7036 333.534 89.7036C334.718 89.7036 335.806 89.5276 336.798 89.1756C337.79 88.7916 338.59 88.2956 339.198 87.6876C339.806 87.0476 340.11 86.3276 340.11 85.5276C340.11 84.5676 339.822 83.7516 339.246 83.0796C338.67 82.4076 337.79 81.8476 336.606 81.3996C335.422 80.9196 333.918 80.5516 332.094 80.2956C330.366 80.0396 328.846 79.6556 327.534 79.1436C326.222 78.5996 325.118 77.9276 324.222 77.1276C323.358 76.2956 322.702 75.3356 322.254 74.2476C321.806 73.1276 321.582 71.8796 321.582 70.5036C321.582 68.4236 322.11 66.6476 323.166 65.1756C324.254 63.7036 325.71 62.5836 327.534 61.8156C329.358 61.0476 331.374 60.6636 333.582 60.6636C335.662 60.6636 337.582 60.9836 339.342 61.6236C341.134 62.2316 342.59 63.0156 343.71 63.9756C344.638 64.7116 345.102 65.5596 345.102 66.5196C345.102 67.2236 344.83 67.8636 344.286 68.4396C343.742 69.0156 343.102 69.3036 342.366 69.3036C341.886 69.3036 341.454 69.1596 341.07 68.8716C340.558 68.4236 339.87 68.0076 339.006 67.6236C338.142 67.2076 337.23 66.8716 336.27 66.6156C335.31 66.3276 334.414 66.1836 333.582 66.1836C332.206 66.1836 331.038 66.3596 330.078 66.7116C329.15 67.0636 328.446 67.5436 327.966 68.1516C327.486 68.7596 327.246 69.4636 327.246 70.2636C327.246 71.2236 327.518 72.0236 328.062 72.6636C328.638 73.2716 329.454 73.7676 330.51 74.1516C331.566 74.5036 332.83 74.8236 334.302 75.1116C336.222 75.4636 337.902 75.8796 339.342 76.3596C340.814 76.8396 342.03 77.4636 342.99 78.2316C343.95 78.9676 344.67 79.9116 345.15 81.0636C345.63 82.1836 345.87 83.5596 345.87 85.1916C345.87 87.2716 345.294 89.0636 344.142 90.5676C342.99 92.0716 341.47 93.2236 339.582 94.0236C337.726 94.8236 335.71 95.2236 333.534 95.2236ZM362.174 95.2236C359.934 95.2236 357.918 94.9516 356.126 94.4076C354.334 93.8316 352.622 92.8396 350.99 91.4316C350.574 91.0796 350.254 90.6796 350.03 90.2316C349.806 89.7836 349.694 89.3356 349.694 88.8876C349.694 88.1516 349.95 87.5116 350.462 86.9676C351.006 86.3916 351.678 86.1036 352.478 86.1036C353.086 86.1036 353.63 86.2956 354.11 86.6796C355.326 87.6716 356.526 88.4236 357.71 88.9356C358.926 89.4476 360.414 89.7036 362.174 89.7036C363.358 89.7036 364.446 89.5276 365.438 89.1756C366.43 88.7916 367.23 88.2956 367.838 87.6876C368.446 87.0476 368.75 86.3276 368.75 85.5276C368.75 84.5676 368.462 83.7516 367.886 83.0796C367.31 82.4076 366.43 81.8476 365.246 81.3996C364.062 80.9196 362.558 80.5516 360.734 80.2956C359.006 80.0396 357.486 79.6556 356.174 79.1436C354.862 78.5996 353.758 77.9276 352.862 77.1276C351.998 76.2956 351.342 75.3356 350.894 74.2476C350.446 73.1276 350.222 71.8796 350.222 70.5036C350.222 68.4236 350.75 66.6476 351.806 65.1756C352.894 63.7036 354.35 62.5836 356.174 61.8156C357.998 61.0476 360.014 60.6636 362.222 60.6636C364.302 60.6636 366.222 60.9836 367.982 61.6236C369.774 62.2316 371.23 63.0156 372.35 63.9756C373.278 64.7116 373.742 65.5596 373.742 66.5196C373.742 67.2236 373.47 67.8636 372.926 68.4396C372.382 69.0156 371.742 69.3036 371.006 69.3036C370.526 69.3036 370.094 69.1596 369.71 68.8716C369.198 68.4236 368.51 68.0076 367.646 67.6236C366.782 67.2076 365.87 66.8716 364.91 66.6156C363.95 66.3276 363.054 66.1836 362.222 66.1836C360.846 66.1836 359.678 66.3596 358.718 66.7116C357.79 67.0636 357.086 67.5436 356.606 68.1516C356.126 68.7596 355.886 69.4636 355.886 70.2636C355.886 71.2236 356.158 72.0236 356.702 72.6636C357.278 73.2716 358.094 73.7676 359.15 74.1516C360.206 74.5036 361.47 74.8236 362.942 75.1116C364.862 75.4636 366.542 75.8796 367.982 76.3596C369.454 76.8396 370.67 77.4636 371.63 78.2316C372.59 78.9676 373.31 79.9116 373.79 81.0636C374.27 82.1836 374.51 83.5596 374.51 85.1916C374.51 87.2716 373.934 89.0636 372.782 90.5676C371.63 92.0716 370.11 93.2236 368.222 94.0236C366.366 94.8236 364.35 95.2236 362.174 95.2236Z" fill="#4D5061"/>
<path d="M27.343 258.646C27.343 258.958 27.229 259.222 27.001 259.438C26.773 259.642 26.509 259.744 26.209 259.744C25.873 259.744 25.603 259.642 25.399 259.438C25.195 259.222 25.093 258.958 25.093 258.646V248.242C25.093 247.93 25.201 247.672 25.417 247.468C25.633 247.252 25.909 247.144 26.245 247.144C26.533 247.144 26.785 247.252 27.001 247.468C27.229 247.672 27.343 247.93 27.343 248.242V258.646ZM39.6081 247.144C39.8961 247.144 40.1301 247.24 40.3101 247.432C40.4901 247.624 40.5801 247.864 40.5801 248.152V258.646C40.5801 258.958 40.4721 259.222 40.2561 259.438C40.0521 259.642 39.7941 259.744 39.4821 259.744C39.3261 259.744 39.1641 259.72 38.9961 259.672C38.8401 259.612 38.7201 259.534 38.6361 259.438L31.5621 250.456L32.0301 250.168V258.736C32.0301 259.024 31.9341 259.264 31.7421 259.456C31.5621 259.648 31.3221 259.744 31.0221 259.744C30.7341 259.744 30.5001 259.648 30.3201 259.456C30.1401 259.264 30.0501 259.024 30.0501 258.736V248.242C30.0501 247.93 30.1521 247.672 30.3561 247.468C30.5721 247.252 30.8361 247.144 31.1481 247.144C31.3161 247.144 31.4901 247.18 31.6701 247.252C31.8501 247.312 31.9821 247.408 32.0661 247.54L38.9241 256.288L38.6181 256.504V248.152C38.6181 247.864 38.7081 247.624 38.8881 247.432C39.0681 247.24 39.3081 247.144 39.6081 247.144ZM51.9624 259.744C51.6264 259.744 51.3564 259.606 51.1524 259.33L46.9944 253.858L48.6324 252.184L52.9344 257.872C53.1024 258.1 53.1864 258.346 53.1864 258.61C53.1864 258.946 53.0604 259.222 52.8084 259.438C52.5564 259.642 52.2744 259.744 51.9624 259.744ZM52.1784 247.054C52.4664 247.054 52.7004 247.174 52.8804 247.414C53.0724 247.642 53.1684 247.876 53.1684 248.116C53.1684 248.368 53.0604 248.602 52.8444 248.818L45.3024 256.036L45.2124 253.462L51.2964 247.468C51.5724 247.192 51.8664 247.054 52.1784 247.054ZM44.4024 259.744C44.0664 259.744 43.7964 259.642 43.5924 259.438C43.3884 259.222 43.2864 258.958 43.2864 258.646V248.242C43.2864 247.93 43.3944 247.672 43.6104 247.468C43.8264 247.252 44.1024 247.144 44.4384 247.144C44.7744 247.144 45.0384 247.252 45.2304 247.468C45.4344 247.672 45.5364 247.93 45.5364 248.242V258.646C45.5364 258.958 45.4344 259.222 45.2304 259.438C45.0264 259.642 44.7504 259.744 44.4024 259.744Z" fill="#B4ADEA"/>
<path d="M62.0293 257.638C62.3413 257.638 62.5993 257.74 62.8033 257.944C63.0193 258.136 63.1273 258.388 63.1273 258.7C63.1273 259 63.0193 259.252 62.8033 259.456C62.5993 259.648 62.3413 259.744 62.0293 259.744H56.1793C55.8673 259.744 55.6033 259.642 55.3873 259.438C55.1833 259.222 55.0813 258.958 55.0813 258.646V248.242C55.0813 247.93 55.1893 247.672 55.4053 247.468C55.6213 247.252 55.8973 247.144 56.2333 247.144C56.5213 247.144 56.7733 247.252 56.9893 247.468C57.2173 247.672 57.3313 247.93 57.3313 248.242V257.944L56.9353 257.638H62.0293Z" fill="url(#paint1_linear)"/>
<path d="M66.2867 247.144H72.3167C72.6287 247.144 72.8867 247.246 73.0907 247.45C73.3067 247.642 73.4147 247.894 73.4147 248.206C73.4147 248.506 73.3067 248.752 73.0907 248.944C72.8867 249.124 72.6287 249.214 72.3167 249.214H67.2767L67.4387 248.908V252.418L67.2947 252.274H71.5067C71.8187 252.274 72.0767 252.376 72.2807 252.58C72.4967 252.772 72.6047 253.024 72.6047 253.336C72.6047 253.636 72.4967 253.882 72.2807 254.074C72.0767 254.254 71.8187 254.344 71.5067 254.344H67.3487L67.4387 254.2V257.836L67.2947 257.674H72.3167C72.6287 257.674 72.8867 257.782 73.0907 257.998C73.3067 258.202 73.4147 258.442 73.4147 258.718C73.4147 259.018 73.3067 259.264 73.0907 259.456C72.8867 259.648 72.6287 259.744 72.3167 259.744H66.2867C65.9747 259.744 65.7107 259.642 65.4947 259.438C65.2907 259.222 65.1887 258.958 65.1887 258.646V248.242C65.1887 247.93 65.2907 247.672 65.4947 247.468C65.7107 247.252 65.9747 247.144 66.2867 247.144ZM79.5395 259.924C78.6995 259.924 77.9435 259.822 77.2715 259.618C76.5995 259.402 75.9575 259.03 75.3455 258.502C75.1895 258.37 75.0695 258.22 74.9855 258.052C74.9015 257.884 74.8595 257.716 74.8595 257.548C74.8595 257.272 74.9555 257.032 75.1475 256.828C75.3515 256.612 75.6035 256.504 75.9035 256.504C76.1315 256.504 76.3355 256.576 76.5155 256.72C76.9715 257.092 77.4215 257.374 77.8655 257.566C78.3215 257.758 78.8795 257.854 79.5395 257.854C79.9835 257.854 80.3915 257.788 80.7635 257.656C81.1355 257.512 81.4355 257.326 81.6635 257.098C81.8915 256.858 82.0055 256.588 82.0055 256.288C82.0055 255.928 81.8975 255.622 81.6815 255.37C81.4655 255.118 81.1355 254.908 80.6915 254.74C80.2475 254.56 79.6835 254.422 78.9995 254.326C78.3515 254.23 77.7815 254.086 77.2895 253.894C76.7975 253.69 76.3835 253.438 76.0475 253.138C75.7235 252.826 75.4775 252.466 75.3095 252.058C75.1415 251.638 75.0575 251.17 75.0575 250.654C75.0575 249.874 75.2555 249.208 75.6515 248.656C76.0595 248.104 76.6055 247.684 77.2895 247.396C77.9735 247.108 78.7295 246.964 79.5575 246.964C80.3375 246.964 81.0575 247.084 81.7175 247.324C82.3895 247.552 82.9355 247.846 83.3555 248.206C83.7035 248.482 83.8775 248.8 83.8775 249.16C83.8775 249.424 83.7755 249.664 83.5715 249.88C83.3675 250.096 83.1275 250.204 82.8515 250.204C82.6715 250.204 82.5095 250.15 82.3655 250.042C82.1735 249.874 81.9155 249.718 81.5915 249.574C81.2675 249.418 80.9255 249.292 80.5655 249.196C80.2055 249.088 79.8695 249.034 79.5575 249.034C79.0415 249.034 78.6035 249.1 78.2435 249.232C77.8955 249.364 77.6315 249.544 77.4515 249.772C77.2715 250 77.1815 250.264 77.1815 250.564C77.1815 250.924 77.2835 251.224 77.4875 251.464C77.7035 251.692 78.0095 251.878 78.4055 252.022C78.8015 252.154 79.2755 252.274 79.8275 252.382C80.5475 252.514 81.1775 252.67 81.7175 252.85C82.2695 253.03 82.7255 253.264 83.0855 253.552C83.4455 253.828 83.7155 254.182 83.8955 254.614C84.0755 255.034 84.1655 255.55 84.1655 256.162C84.1655 256.942 83.9495 257.614 83.5175 258.178C83.0855 258.742 82.5155 259.174 81.8075 259.474C81.1115 259.774 80.3555 259.924 79.5395 259.924ZM90.2798 259.924C89.4398 259.924 88.6838 259.822 88.0118 259.618C87.3398 259.402 86.6978 259.03 86.0858 258.502C85.9298 258.37 85.8098 258.22 85.7258 258.052C85.6418 257.884 85.5998 257.716 85.5998 257.548C85.5998 257.272 85.6958 257.032 85.8878 256.828C86.0918 256.612 86.3438 256.504 86.6438 256.504C86.8718 256.504 87.0758 256.576 87.2558 256.72C87.7118 257.092 88.1618 257.374 88.6058 257.566C89.0618 257.758 89.6198 257.854 90.2798 257.854C90.7238 257.854 91.1318 257.788 91.5038 257.656C91.8758 257.512 92.1758 257.326 92.4038 257.098C92.6318 256.858 92.7458 256.588 92.7458 256.288C92.7458 255.928 92.6378 255.622 92.4218 255.37C92.2058 255.118 91.8758 254.908 91.4318 254.74C90.9878 254.56 90.4238 254.422 89.7398 254.326C89.0918 254.23 88.5218 254.086 88.0298 253.894C87.5378 253.69 87.1238 253.438 86.7878 253.138C86.4638 252.826 86.2178 252.466 86.0498 252.058C85.8818 251.638 85.7978 251.17 85.7978 250.654C85.7978 249.874 85.9958 249.208 86.3918 248.656C86.7998 248.104 87.3458 247.684 88.0298 247.396C88.7138 247.108 89.4698 246.964 90.2978 246.964C91.0778 246.964 91.7978 247.084 92.4578 247.324C93.1298 247.552 93.6758 247.846 94.0958 248.206C94.4438 248.482 94.6178 248.8 94.6178 249.16C94.6178 249.424 94.5158 249.664 94.3118 249.88C94.1078 250.096 93.8678 250.204 93.5918 250.204C93.4118 250.204 93.2498 250.15 93.1058 250.042C92.9138 249.874 92.6558 249.718 92.3318 249.574C92.0078 249.418 91.6658 249.292 91.3058 249.196C90.9458 249.088 90.6098 249.034 90.2978 249.034C89.7818 249.034 89.3438 249.1 88.9838 249.232C88.6358 249.364 88.3718 249.544 88.1918 249.772C88.0118 250 87.9218 250.264 87.9218 250.564C87.9218 250.924 88.0238 251.224 88.2278 251.464C88.4438 251.692 88.7498 251.878 89.1458 252.022C89.5418 252.154 90.0158 252.274 90.5678 252.382C91.2878 252.514 91.9178 252.67 92.4578 252.85C93.0098 253.03 93.4658 253.264 93.8258 253.552C94.1858 253.828 94.4558 254.182 94.6358 254.614C94.8158 255.034 94.9058 255.55 94.9058 256.162C94.9058 256.942 94.6898 257.614 94.2578 258.178C93.8258 258.742 93.2558 259.174 92.5478 259.474C91.8518 259.774 91.0958 259.924 90.2798 259.924Z" fill="#4D5061"/>
<path d="M505.543 186.28C505.543 186.696 505.391 187.048 505.087 187.336C504.783 187.608 504.431 187.744 504.031 187.744C503.583 187.744 503.223 187.608 502.951 187.336C502.679 187.048 502.543 186.696 502.543 186.28V172.408C502.543 171.992 502.687 171.648 502.975 171.376C503.263 171.088 503.631 170.944 504.079 170.944C504.463 170.944 504.799 171.088 505.087 171.376C505.391 171.648 505.543 171.992 505.543 172.408V186.28ZM521.896 170.944C522.28 170.944 522.592 171.072 522.832 171.328C523.072 171.584 523.192 171.904 523.192 172.288V186.28C523.192 186.696 523.048 187.048 522.76 187.336C522.488 187.608 522.144 187.744 521.728 187.744C521.52 187.744 521.304 187.712 521.08 187.648C520.872 187.568 520.712 187.464 520.6 187.336L511.168 175.36L511.792 174.976V186.4C511.792 186.784 511.664 187.104 511.408 187.36C511.168 187.616 510.848 187.744 510.448 187.744C510.064 187.744 509.752 187.616 509.512 187.36C509.272 187.104 509.152 186.784 509.152 186.4V172.408C509.152 171.992 509.288 171.648 509.56 171.376C509.848 171.088 510.2 170.944 510.616 170.944C510.84 170.944 511.072 170.992 511.312 171.088C511.552 171.168 511.728 171.296 511.84 171.472L520.984 183.136L520.576 183.424V172.288C520.576 171.904 520.696 171.584 520.936 171.328C521.176 171.072 521.496 170.944 521.896 170.944ZM538.369 187.744C537.921 187.744 537.561 187.56 537.289 187.192L531.745 179.896L533.929 177.664L539.665 185.248C539.889 185.552 540.001 185.88 540.001 186.232C540.001 186.68 539.833 187.048 539.497 187.336C539.161 187.608 538.785 187.744 538.369 187.744ZM538.657 170.824C539.041 170.824 539.353 170.984 539.593 171.304C539.849 171.608 539.977 171.92 539.977 172.24C539.977 172.576 539.833 172.888 539.545 173.176L529.489 182.8L529.369 179.368L537.481 171.376C537.849 171.008 538.241 170.824 538.657 170.824ZM528.289 187.744C527.841 187.744 527.481 187.608 527.209 187.336C526.937 187.048 526.801 186.696 526.801 186.28V172.408C526.801 171.992 526.945 171.648 527.233 171.376C527.521 171.088 527.889 170.944 528.337 170.944C528.785 170.944 529.137 171.088 529.393 171.376C529.665 171.648 529.801 171.992 529.801 172.408V186.28C529.801 186.696 529.665 187.048 529.393 187.336C529.121 187.608 528.753 187.744 528.289 187.744Z" fill="#B4ADEA"/>
<path d="M551.791 184.936C552.207 184.936 552.551 185.072 552.823 185.344C553.111 185.6 553.255 185.936 553.255 186.352C553.255 186.752 553.111 187.088 552.823 187.36C552.551 187.616 552.207 187.744 551.791 187.744H543.991C543.575 187.744 543.223 187.608 542.935 187.336C542.663 187.048 542.527 186.696 542.527 186.28V172.408C542.527 171.992 542.671 171.648 542.959 171.376C543.247 171.088 543.615 170.944 544.063 170.944C544.447 170.944 544.783 171.088 545.071 171.376C545.375 171.648 545.527 171.992 545.527 172.408V185.344L544.999 184.936H551.791Z" fill="url(#paint2_linear)"/>
<path d="M557.468 170.944H565.508C565.924 170.944 566.268 171.08 566.54 171.352C566.828 171.608 566.972 171.944 566.972 172.36C566.972 172.76 566.828 173.088 566.54 173.344C566.268 173.584 565.924 173.704 565.508 173.704H558.788L559.004 173.296V177.976L558.812 177.784H564.428C564.844 177.784 565.188 177.92 565.46 178.192C565.748 178.448 565.892 178.784 565.892 179.2C565.892 179.6 565.748 179.928 565.46 180.184C565.188 180.424 564.844 180.544 564.428 180.544H558.884L559.004 180.352V185.2L558.812 184.984H565.508C565.924 184.984 566.268 185.128 566.54 185.416C566.828 185.688 566.972 186.008 566.972 186.376C566.972 186.776 566.828 187.104 566.54 187.36C566.268 187.616 565.924 187.744 565.508 187.744H557.468C557.052 187.744 556.7 187.608 556.412 187.336C556.14 187.048 556.004 186.696 556.004 186.28V172.408C556.004 171.992 556.14 171.648 556.412 171.376C556.7 171.088 557.052 170.944 557.468 170.944ZM575.138 187.984C574.018 187.984 573.01 187.848 572.114 187.576C571.218 187.288 570.362 186.792 569.546 186.088C569.338 185.912 569.178 185.712 569.066 185.488C568.954 185.264 568.898 185.04 568.898 184.816C568.898 184.448 569.026 184.128 569.282 183.856C569.554 183.568 569.89 183.424 570.29 183.424C570.594 183.424 570.866 183.52 571.106 183.712C571.714 184.208 572.314 184.584 572.906 184.84C573.514 185.096 574.258 185.224 575.138 185.224C575.73 185.224 576.274 185.136 576.77 184.96C577.266 184.768 577.666 184.52 577.97 184.216C578.274 183.896 578.426 183.536 578.426 183.136C578.426 182.656 578.282 182.248 577.994 181.912C577.706 181.576 577.266 181.296 576.674 181.072C576.082 180.832 575.33 180.648 574.418 180.52C573.554 180.392 572.794 180.2 572.138 179.944C571.482 179.672 570.93 179.336 570.482 178.936C570.05 178.52 569.722 178.04 569.498 177.496C569.274 176.936 569.162 176.312 569.162 175.624C569.162 174.584 569.426 173.696 569.954 172.96C570.498 172.224 571.226 171.664 572.138 171.28C573.05 170.896 574.058 170.704 575.162 170.704C576.202 170.704 577.162 170.864 578.042 171.184C578.938 171.488 579.666 171.88 580.226 172.36C580.69 172.728 580.922 173.152 580.922 173.632C580.922 173.984 580.786 174.304 580.514 174.592C580.242 174.88 579.922 175.024 579.554 175.024C579.314 175.024 579.098 174.952 578.906 174.808C578.65 174.584 578.306 174.376 577.874 174.184C577.442 173.976 576.986 173.808 576.506 173.68C576.026 173.536 575.578 173.464 575.162 173.464C574.474 173.464 573.89 173.552 573.41 173.728C572.946 173.904 572.594 174.144 572.354 174.448C572.114 174.752 571.994 175.104 571.994 175.504C571.994 175.984 572.13 176.384 572.402 176.704C572.69 177.008 573.098 177.256 573.626 177.448C574.154 177.624 574.786 177.784 575.522 177.928C576.482 178.104 577.322 178.312 578.042 178.552C578.778 178.792 579.386 179.104 579.866 179.488C580.346 179.856 580.706 180.328 580.946 180.904C581.186 181.464 581.306 182.152 581.306 182.968C581.306 184.008 581.018 184.904 580.442 185.656C579.866 186.408 579.106 186.984 578.162 187.384C577.234 187.784 576.226 187.984 575.138 187.984ZM589.459 187.984C588.339 187.984 587.331 187.848 586.435 187.576C585.539 187.288 584.683 186.792 583.867 186.088C583.659 185.912 583.499 185.712 583.387 185.488C583.275 185.264 583.219 185.04 583.219 184.816C583.219 184.448 583.347 184.128 583.603 183.856C583.875 183.568 584.211 183.424 584.611 183.424C584.915 183.424 585.187 183.52 585.427 183.712C586.035 184.208 586.635 184.584 587.227 184.84C587.835 185.096 588.579 185.224 589.459 185.224C590.051 185.224 590.595 185.136 591.091 184.96C591.587 184.768 591.987 184.52 592.291 184.216C592.595 183.896 592.747 183.536 592.747 183.136C592.747 182.656 592.603 182.248 592.315 181.912C592.027 181.576 591.587 181.296 590.995 181.072C590.403 180.832 589.651 180.648 588.739 180.52C587.875 180.392 587.115 180.2 586.459 179.944C585.803 179.672 585.251 179.336 584.803 178.936C584.371 178.52 584.043 178.04 583.819 177.496C583.595 176.936 583.483 176.312 583.483 175.624C583.483 174.584 583.747 173.696 584.275 172.96C584.819 172.224 585.547 171.664 586.459 171.28C587.371 170.896 588.379 170.704 589.483 170.704C590.523 170.704 591.483 170.864 592.363 171.184C593.259 171.488 593.987 171.88 594.547 172.36C595.011 172.728 595.243 173.152 595.243 173.632C595.243 173.984 595.107 174.304 594.835 174.592C594.563 174.88 594.243 175.024 593.875 175.024C593.635 175.024 593.419 174.952 593.227 174.808C592.971 174.584 592.627 174.376 592.195 174.184C591.763 173.976 591.307 173.808 590.827 173.68C590.347 173.536 589.899 173.464 589.483 173.464C588.795 173.464 588.211 173.552 587.731 173.728C587.267 173.904 586.915 174.144 586.675 174.448C586.435 174.752 586.315 175.104 586.315 175.504C586.315 175.984 586.451 176.384 586.723 176.704C587.011 177.008 587.419 177.256 587.947 177.448C588.475 177.624 589.107 177.784 589.843 177.928C590.803 178.104 591.643 178.312 592.363 178.552C593.099 178.792 593.707 179.104 594.187 179.488C594.667 179.856 595.027 180.328 595.267 180.904C595.507 181.464 595.627 182.152 595.627 182.968C595.627 184.008 595.339 184.904 594.763 185.656C594.187 186.408 593.427 186.984 592.483 187.384C591.555 187.784 590.547 187.984 589.459 187.984Z" fill="#4D5061"/>
<defs>
<linearGradient id="paint0_linear" x1="285.243" y1="46.7436" x2="285.243" y2="94.7436" gradientUnits="userSpaceOnUse">
<stop offset="0.260417" stop-color="#B4ADEA"/>
<stop offset="0.9375" stop-color="#4D5061"/>
</linearGradient>
<linearGradient id="paint1_linear" x1="63.243" y1="241.744" x2="63.243" y2="269.744" gradientUnits="userSpaceOnUse">
<stop offset="0.260417" stop-color="#B4ADEA"/>
<stop offset="0.9375" stop-color="#4D5061"/>
</linearGradient>
<linearGradient id="paint2_linear" x1="555.243" y1="163.744" x2="555.243" y2="191.744" gradientUnits="userSpaceOnUse">
<stop offset="0.260417" stop-color="#B4ADEA"/>
<stop offset="0.9375" stop-color="#4D5061"/>
</linearGradient>
</defs>
</svg>
